<?xml version="1.0" encoding="UTF-8"?>
<svg width="347px" height="276px" viewBox="0 0 347 276" version="1.1" xmlns="http://www.w3.org/2000/svg" xmlns:xlink="http://www.w3.org/1999/xlink">
    <!-- Generator: Sketch 53.2 (72643) - https://sketchapp.com -->
    <title>contact-image</title>
    <desc>Created with Sketch.</desc>
    <g id="Page-1" stroke="none" stroke-width="1" fill="none" fill-rule="evenodd">
        <g id="Contact-Copy" transform="translate(-871.000000, -89.000000)">
            <g id="contact-image" transform="translate(871.000000, 91.000000)">
                <g id="Group-22" transform="translate(163.000000, 155.000000)">
                    <g id="Group-29">
                        <rect id="Rectangle-Copy-4" fill="#D9B138" x="0" y="0" width="79.3333333" height="79.3333333" rx="39.6666667"></rect>
                        <rect id="Rectangle" fill="#EAC146" x="0.80952381" y="5.66666667" width="79.3333333" height="79.3333333" rx="39.6666667"></rect>
                    </g>
                </g>
                <g id="Group-22-Copy-4" transform="translate(266.000000, 189.000000)">
                    <g id="Group-29">
                        <rect id="Rectangle-Copy-4" fill="#4CA4B1" x="0" y="0" width="79.3333333" height="79.3333333" rx="39.6666667"></rect>
                        <rect id="Rectangle" fill="#7FC8D3" x="0.80952381" y="5.66666667" width="79.3333333" height="79.3333333" rx="39.6666667"></rect>
                    </g>
                    <g id="Group-27" transform="translate(19.000000, 26.000000)" fill="#FFFFFF">
                        <g id="Group-113" transform="translate(0.000000, 0.651902)">
                            <path d="M39.1808758,31.9054921 C37.8603714,30.8428519 36.4499144,29.8881548 35.061046,28.9142678 C32.2905055,26.9688926 29.7586392,26.8177722 27.6909284,29.9469238 C26.52994,31.7039983 24.9059955,31.7807578 23.2064907,31.0107634 C18.5229579,28.8866824 14.9068628,25.6148059 12.7887785,20.8545135 C11.852072,18.748423 11.8640657,16.8606174 14.0565107,15.3710021 C15.2174991,14.5830172 16.3868831,13.6511081 16.2933324,11.9300147 C16.1721962,9.68479748 10.7222671,2.18514813 8.56940121,1.39356512 C7.67947001,1.0661376 6.79193754,1.08652686 5.88641455,1.39116638 C0.840672534,3.08827238 -1.24982624,7.23808635 0.751919287,12.1518979 C6.72357355,26.8117754 17.2324377,37.0171994 31.6968182,43.2467178 C32.5219835,43.6005314 33.4395002,43.7432562 33.9024563,43.8703893 C37.1959214,43.9039716 41.0530895,40.7304433 42.1685019,37.5809024 C43.2407371,34.5512984 40.9739312,33.3495314 39.1808758,31.9054921" id="Fill-3958"></path>
                            <path d="M22.9606202,2.31947737 C33.5354496,3.94582065 38.4120807,8.97477151 39.7601706,19.6263605 C39.8837055,20.6110418 39.5178982,22.0910621 40.921159,22.1186476 C42.3891857,22.1462331 42.0353721,20.6878013 42.0473658,19.70312 C42.1709007,9.67040506 33.4239084,0.371703412 23.2652598,0.028684107 C22.4988635,0.139025981 20.9144981,-0.500237269 20.8149505,1.21725799 C20.7489853,2.37584767 22.0838821,2.18514813 22.9606202,2.31947737" id="Fill-3959"></path>
                            <path d="M25.028331,5.23993893 C24.0112668,5.11880275 22.6691738,4.63905547 22.4304995,6.05071184 C22.1834296,7.53193156 23.6790418,7.38201054 24.6421345,7.59669744 C31.1738937,9.05632854 33.4466964,11.4334763 34.5225297,17.9124633 C34.6796469,18.8575655 34.3678112,20.3279909 35.9725658,20.0833198 C37.1623391,19.9022152 36.7329653,18.6428786 36.8325128,17.9064665 C36.885285,11.686543 31.5552928,6.02432574 25.028331,5.23993893" id="Fill-3960"></path>
                            <path d="M25.6292145,10.3276588 C24.9491727,10.34445 24.2835234,10.4176114 24.0340548,11.1432292 C23.6586525,12.2274581 24.4478368,12.4865216 25.2502141,12.614854 C27.9296027,13.0454272 29.3388603,14.6249951 29.6075188,17.2971874 C29.6794809,18.0228052 30.1400383,18.6092963 30.8404693,18.5265398 C31.8107582,18.4114005 31.8995114,17.5478554 31.8695272,16.7262882 C31.9175019,13.7242696 28.5244893,10.2556967 25.6292145,10.3276588" id="Fill-3961"></path>
                        </g>
                    </g>
                </g>
                <g id="Group-22-Copy-3" transform="translate(60.000000, 189.000000)">
                    <g id="Group-29">
                        <rect id="Rectangle-Copy-4" fill="#548D3A" x="0" y="0" width="79.3333333" height="79.3333333" rx="39.6666667"></rect>
                        <rect id="Rectangle" fill="#66B54A" x="0.80952381" y="5.66666667" width="79.3333333" height="79.3333333" rx="39.6666667"></rect>
                    </g>
                </g>
                <g id="Group-22-Copy" transform="translate(0.000000, 90.000000)">
                    <g id="Group-29">
                        <rect id="Rectangle-Copy-4" fill="#D9B138" x="0" y="0" width="79.3333333" height="79.3333333" rx="39.6666667"></rect>
                        <rect id="Rectangle" fill="#EAC146" x="0.80952381" y="5.66666667" width="79.3333333" height="79.3333333" rx="39.6666667"></rect>
                    </g>
                </g>
                <g id="Group-22-Copy-2" transform="translate(217.000000, 73.000000)">
                    <g id="Group-29">
                        <rect id="Rectangle-Copy-4" fill="#509431" x="0" y="0" width="79.3333333" height="79.3333333" rx="39.6666667"></rect>
                        <rect id="Rectangle" fill="#66B54A" x="0.80952381" y="5.66666667" width="79.3333333" height="79.3333333" rx="39.6666667"></rect>
                    </g>
                </g>
                <path d="M254.417782,125.903413 C255.422478,125.903413 256.361108,125.458079 257.237412,124.564591 C258.11247,123.672513 258.70706,122.253361 259.023676,120.307137 L259.671867,116.193429 C259.873803,114.918025 259.029909,113.691946 257.88311,113.689127 L257.861919,113.689127 C257.000573,113.689127 256.210279,113.892065 255.493529,114.297939 C254.77678,114.703814 254.159752,115.270347 253.642446,116.000357 C253.126386,116.730368 252.725007,117.590032 252.438307,118.579351 C252.150361,119.57008 252.007011,120.648184 252.007011,121.816482 C252.007011,123.017194 252.193989,123.998058 252.566699,124.759072 C252.939408,125.521496 253.557683,125.903413 254.417782,125.903413 M256.282832,139.509425 C253.9681,139.509425 251.797341,139.139871 249.768072,138.402126 C247.740044,137.664381 245.975138,136.535263 244.475837,135.012045 C242.975295,133.488827 241.796209,131.567417 240.939821,129.243725 C240.082191,126.921397 239.653996,124.158604 239.653996,120.956709 C239.653996,117.848907 240.075985,115.087477 240.918721,112.669692 C241.760216,110.251907 242.960402,108.22004 244.518036,106.571365 C246.07443,104.924052 247.939868,103.668113 250.110627,102.804911 C252.282628,101.941708 254.696651,101.509425 257.353938,101.509425 C260.096865,101.509425 262.476136,101.910344 264.490511,102.710818 C266.503645,103.511291 268.181671,104.656773 269.525829,106.147264 C270.867505,107.639117 271.867866,109.459616 272.524431,111.610122 C273.182236,113.760628 273.511139,116.170231 273.511139,118.837567 C273.511139,122.604021 272.796241,125.548182 271.368926,127.66596 C269.939129,129.786465 267.824222,130.844673 265.025444,130.844673 C264.281999,130.844673 263.63164,130.727397 263.075608,130.492846 C262.518335,130.256931 262.0467,129.950106 261.660705,129.573733 C261.275951,129.19736 260.9818,128.781441 260.781976,128.325976 C260.582152,127.871874 260.454314,127.408227 260.39598,126.936397 L260.224702,126.936397 C259.481258,128.160972 258.510684,129.080085 257.310498,129.691009 C256.111554,130.303296 254.867929,130.610122 253.582104,130.610122 C251.638474,130.610122 250.154067,129.849194 249.125159,128.325976 C248.096252,126.804121 247.582419,124.770891 247.582419,122.229012 C247.582419,120.471243 247.824441,118.845749 248.31097,117.353895 C248.796257,115.864769 249.490056,114.576102 250.389884,113.493348 C251.289713,112.410595 252.389366,111.570575 253.688843,110.974652 C254.989561,110.378728 256.439216,110.078721 258.04029,110.078721 C259.067957,110.078721 260.188709,110.236907 261.403788,110.550551 C262.137304,110.740101 262.883231,110.98147 263.64281,111.273295 C264.516575,111.610122 265.034132,112.609691 264.860372,113.60926 L263.482703,121.568996 C263.424369,121.978097 263.367277,122.392652 263.311425,122.816753 C263.253092,123.240854 263.225786,123.640409 263.225786,124.018146 C263.225786,124.739527 263.375965,125.328632 263.67508,125.784097 C263.975437,126.239562 264.511611,126.465931 265.282361,126.465931 C266.36712,126.465931 267.217303,125.790915 267.831668,124.442247 C268.447275,123.092214 268.753838,121.223988 268.753838,118.837567 C268.753838,114.945656 267.824222,111.900583 265.968713,109.703712 C264.10948,107.505478 261.238716,106.407724 257.353938,106.407724 C255.410308,106.407724 253.639197,106.728187 252.039363,107.371838 C250.438289,108.01549 249.075514,108.957785 247.947315,110.19736 C246.817874,111.438299 245.946592,112.960154 245.332226,114.764288 C244.71786,116.569786 244.411298,118.63438 244.411298,120.956709 C244.411298,123.343129 244.71786,125.399542 245.332226,127.124584 C245.946592,128.852352 246.789328,130.280114 247.861676,131.410595 C248.931541,132.541077 250.19006,133.371551 251.632269,133.906109 C253.074477,134.439304 254.624665,134.706583 256.282832,134.706583 C257.424683,134.706583 258.731607,134.541579 260.203603,134.211571 C261.153077,133.998839 262.134822,133.743833 263.148835,133.446553 C264.108239,133.165637 265.104877,133.753379 265.415163,134.789767 L265.613746,135.451146 C265.950096,136.570719 265.365517,137.778929 264.329163,138.087119 C263.152559,138.437582 262.014431,138.732134 260.911054,138.968049 C259.224341,139.328057 257.6816,139.509425 256.282832,139.509425" id="Fill-191" stroke="#66B54A" fill="#FFFFFF" transform="translate(256.582568, 120.509425) rotate(-2.000000) translate(-256.582568, -120.509425) "></path>
                <g id="Group-25" transform="translate(35.000000, 0.000000)">
                    <ellipse id="Oval" fill="#FFFFFF" cx="4" cy="92.5" rx="4" ry="2.5"></ellipse>
                    <path d="M4.40015229,92.6666667 L4.40015229,0.589536419" id="Path-4" stroke="#8585A1" stroke-width="3" stroke-linecap="square"></path>
                </g>
                <g id="Group-25-Copy-3" transform="translate(253.000000, 1.000000)">
                    <ellipse id="Oval" fill="#FFFFFF" cx="4" cy="74.5" rx="4" ry="2.5"></ellipse>
                    <path d="M4.40015229,74.6666667 L4.40015229,0.318085263" id="Path-4" stroke="#8585A1" stroke-width="3" stroke-linecap="square"></path>
                </g>
                <g id="Group-25-Copy" transform="translate(94.000000, 1.000000)">
                    <ellipse id="Oval" fill="#FFFFFF" cx="4" cy="190.5" rx="4" ry="2.5"></ellipse>
                    <path d="M4.40015229,190.666667 L4.40015229,0.293007722" id="Path-4" stroke="#8585A1" stroke-width="3" stroke-linecap="square"></path>
                </g>
                <g id="Group-25-Copy-4" transform="translate(199.000000, 0.000000)">
                    <ellipse id="Oval" fill="#FFFFFF" cx="4" cy="157.5" rx="4" ry="2.5"></ellipse>
                    <path d="M4.40015229,157.666667 L4.40015229,0.310571012" id="Path-4" stroke="#8585A1" stroke-width="3" stroke-linecap="square"></path>
                </g>
                <g id="Group-25-Copy-2" transform="translate(301.000000, 1.000000)">
                    <ellipse id="Oval" fill="#FFFFFF" cx="4" cy="190.5" rx="4" ry="2.5"></ellipse>
                    <path d="M4.40015229,190.666667 L4.40015229,0.293007722" id="Path-4" stroke="#8585A1" stroke-width="3" stroke-linecap="square"></path>
                </g>
                <g id="Group-26" transform="translate(106.000000, 0.000000)">
                    <g id="Group-22-Copy-6" transform="translate(0.000000, 80.000000)">
                        <g id="Group-29">
                            <rect id="Rectangle-Copy-4" fill="#4CA4B1" x="0" y="0" width="79.3333333" height="79.3333333" rx="39.6666667"></rect>
                            <rect id="Rectangle" fill="#7FC8D3" x="0.80952381" y="5.66666667" width="79.3333333" height="79.3333333" rx="39.6666667"></rect>
                        </g>
                    </g>
                    <g id="Group-25" transform="translate(34.000000, 0.000000)">
                        <ellipse id="Oval" fill="#FFFFFF" cx="4" cy="82.5" rx="4" ry="2.5"></ellipse>
                        <path d="M4.40015229,82.6666667 L4.40015229,0.577807648" id="Path-4" stroke="#8585A1" stroke-width="3" stroke-linecap="square"></path>
                    </g>
                </g>
                <g id="user-(33)" transform="translate(20.000000, 116.000000)" fill="#FFFFFF" fill-rule="nonzero" stroke="#FFFFFF">
                    <path d="M34.9957046,6.00429537 C31.1238022,2.13239286 25.9756546,0 20.5,0 C15.0240326,0 9.87619779,2.13239286 6.00429537,6.00429537 C2.13239286,9.87619779 0,15.0240326 0,20.5 C0,25.9756546 2.13239286,31.1238022 6.00429537,34.9957046 C9.87619779,38.8676071 15.0240326,41 20.5,41 C25.9756546,41 31.1238022,38.8676071 34.9957046,34.9957046 C38.8676071,31.1238022 41,25.9756546 41,20.5 C41,15.0240326 38.8676071,9.87619779 34.9957046,6.00429537 Z M10.2772141,35.425499 C11.134613,30.4888077 15.4125366,26.8474426 20.5,26.8474426 C25.5877762,26.8474426 29.865387,30.4888077 30.7227859,35.425499 C27.8121338,37.4252625 24.2905732,38.5976562 20.5,38.5976562 C16.7094268,38.5976562 13.1878662,37.4252625 10.2772141,35.425499 Z M13.9817657,17.9268647 C13.9817657,14.3324204 16.9058686,11.4086304 20.5,11.4086304 C24.0941314,11.4086304 27.0182343,14.3327332 27.0182343,17.9268647 C27.0182343,21.5209961 24.0941314,24.4450989 20.5,24.4450989 C16.9058686,24.4450989 13.9817657,21.5209961 13.9817657,17.9268647 Z M32.803566,33.7591858 C32.1569976,31.4610061 30.8729324,29.3758469 29.0730515,27.7470703 C27.9688492,26.7476578 26.711998,25.9590759 25.3606796,25.4032212 C27.8030625,23.8101044 29.4208908,21.053978 29.4208908,17.9268647 C29.4208908,13.0080032 25.4188614,9.00628662 20.5,9.00628662 C15.5811386,9.00628662 11.579422,13.0080032 11.579422,17.9268647 C11.579422,21.053978 13.1972504,23.8101044 15.6393204,25.4032212 C14.2883149,25.9590759 13.0311508,26.747345 11.9269485,27.7467575 C10.1273804,29.3755341 8.84300236,31.4606934 8.19643404,33.758873 C4.63514705,30.4515839 2.40234375,25.7319794 2.40234375,20.5 C2.40234375,10.5208892 10.5208892,2.40234375 20.5,2.40234375 C30.4791108,2.40234375 38.5976562,10.5208892 38.5976562,20.5 C38.5976562,25.7322922 36.3648529,30.4518967 32.803566,33.7591858 Z" id="Shape"></path>
                </g>
                <g id="whatsapp-(2)" transform="translate(81.000000, 214.000000)" fill="#FFFFFF" fill-rule="nonzero">
                    <path d="M19.3677542,0.0236801909 C8.56205251,0.538186158 0.0348353222,9.53724582 0.0676157518,20.355179 C0.0775966587,23.6500525 0.8730358,26.7599857 2.27623389,29.5078663 L0.121825776,39.9656062 C0.00528400955,40.5312888 0.515484487,41.0266158 1.07744869,40.893537 L11.3248067,38.4657303 C13.9575155,39.7771432 16.9146038,40.5346158 20.0442053,40.5823675 C31.0886659,40.7510644 40.2978138,31.9814678 40.6420573,20.9411169 C41.0110573,9.10659905 31.2436635,-0.541904535 19.3677542,0.0236801909 Z M31.5950501,31.5276301 C28.5940263,34.5286539 24.6039141,36.1813747 20.3598759,36.1813747 C17.8748258,36.1813747 15.4956516,35.6238138 13.2882076,34.5242506 L11.8611337,33.8133556 L5.5784463,35.3018807 L6.90091647,28.8821026 L6.19784964,27.5053246 C5.05190453,25.2610883 4.47085919,22.8342601 4.47085919,20.292358 C4.47085919,16.048222 6.12357995,12.0582076 9.12460382,9.05708592 C12.0988162,6.08287351 16.154,4.40324344 20.3601695,4.40324344 C24.6042076,4.40334129 28.5941241,6.05606205 31.595148,9.05698807 C34.5961718,12.0580119 36.2488926,16.0480263 36.2489905,20.2920644 C36.2488926,24.4983317 34.5692625,28.5535155 31.5950501,31.5276301 Z" id="Shape" stroke="#66B54A"></path>
                    <path d="M30.2080955,24.6930573 L26.2774773,23.564432 C25.7607208,23.4160883 25.2042363,23.5626706 24.8277017,23.9463484 L23.8665012,24.9256516 C23.4611981,25.3385871 22.8461981,25.4712745 22.3097733,25.2542387 C20.450389,24.5017566 16.5390477,21.0240955 15.5401742,19.28458 C15.252,18.7827947 15.2996539,18.1554654 15.6534869,17.6976158 L16.4926659,16.6119475 C16.8214487,16.1865847 16.8908258,15.6153246 16.6733986,15.1236181 L15.0196993,11.38342 C14.6235943,10.4875847 13.4788234,10.2268091 12.7309403,10.8593246 C11.6339212,11.7871575 10.3322936,13.1971074 10.1740668,14.7591193 C9.89509069,17.5130668 11.0761647,20.9846611 15.5424248,25.1531575 C20.7021623,29.9689451 24.8340621,30.605179 27.5243079,29.9534845 C29.0502124,29.5838974 30.2696444,28.102222 31.0392506,26.8890525 C31.5639332,26.0619093 31.1496277,24.9634224 30.2080955,24.6930573 Z" id="Path"></path>
                </g>
                <g id="headset" transform="translate(181.000000, 176.000000)" fill="#FFFFFF" fill-rule="nonzero">
                    <path d="M22.3713633,0 C13.0989492,0 5.55602734,7.54301172 5.55602734,16.8153359 L5.55602734,18.6393437 L8.97610938,18.6393437 L8.97610938,16.8153359 C8.97610938,9.42910156 14.9852187,3.42008203 22.3713633,3.42008203 C29.7575078,3.42008203 35.7666172,9.42919141 35.7666172,16.8153359 L35.7666172,18.6393437 L39.1866992,18.6393437 L39.1866992,16.8153359 C39.1866992,7.54301172 31.6432383,0 22.3713633,0 Z" id="Path"></path>
                    <path d="M9.66008984,16.9293477 L5.44201563,16.9293477 C2.48768359,16.9293477 0.0839140625,19.3331172 0.0839140625,22.2874492 L0.0839140625,30.0965781 C0.0839140625,33.0509102 2.48768359,35.4546797 5.44201563,35.4546797 L9.66008984,35.4546797 C10.6046172,35.4546797 11.3700859,34.6891211 11.3700859,33.7446836 L11.3700859,18.6394336 C11.3701758,17.6949062 10.6046172,16.9293477 9.66008984,16.9293477 Z M7.95009375,32.0346875 L5.44201563,32.0346875 C4.35553516,32.0346875 3.50399609,31.1836875 3.50399609,30.096668 L3.50399609,22.2875391 C3.50399609,21.2010586 4.355625,20.3495195 5.44201563,20.3495195 L7.95009375,20.3495195 L7.95009375,32.0346875 Z" id="Shape"></path>
                    <path d="M39.3001719,16.9293477 L35.0826367,16.9293477 C34.1381094,16.9293477 33.3726406,17.6949062 33.3726406,18.6393437 L33.3726406,33.7446836 C33.3726406,34.6892109 34.1381992,35.4546797 35.0826367,35.4546797 L39.3007109,35.4546797 C42.255043,35.4546797 44.6588125,33.0509102 44.6582734,30.0965781 L44.6582734,22.2874492 C44.6582734,19.3331172 42.2551328,16.9293477 39.3001719,16.9293477 Z M41.2381914,30.096668 C41.2381914,31.1836875 40.3871914,32.0346875 39.3001719,32.0346875 L36.7927227,32.0346875 L36.7927227,20.3494297 L39.3001719,20.3494297 C40.3871914,20.3494297 41.2381914,21.2010586 41.2381914,22.2874492 L41.2381914,30.096668 Z" id="Shape"></path>
                    <path d="M36.9642344,33.7447734 C36.9642344,36.1337187 35.0204648,38.0768594 32.6316094,38.0768594 L28.0715,38.0768594 L28.0715,41.4969414 L32.6316094,41.4969414 C36.9061055,41.4969414 40.3837773,38.0192695 40.3843164,33.7447734 L36.9642344,33.7447734 L36.9642344,33.7447734 Z" id="Path"></path>
                    <path d="M29.7239961,39.7481328 C29.7028828,36.3406289 26.9235664,33.5743398 23.5108516,33.5743398 C20.0856484,33.5743398 17.2983359,36.3611133 17.2983359,39.7869453 C17.2983359,43.2127773 20.1112539,46 23.5684414,46 C25.2756523,46 26.9201523,45.3039805 28.0794961,44.0899219 C29.2046992,42.9127891 29.7872461,41.3725977 29.7239961,39.7481328 Z M25.6078945,41.726043 C25.0897656,42.2681602 24.3464883,42.5793789 23.5689805,42.5793789 C22.024207,42.5793789 20.718957,41.3002734 20.718957,39.7863164 C20.718957,38.2467539 21.9712891,36.993793 23.5114805,36.993793 C25.0516719,36.993793 26.304543,38.247293 26.305082,39.7856875 C26.305082,39.8119219 26.3056211,39.8375273 26.3067891,39.8637617 C26.3380547,40.5597813 26.0901758,41.2215703 25.6078945,41.726043 Z" id="Shape"></path>
                </g>
                <g id="message-(1)" transform="translate(123.000000, 109.000000)" fill="#FFFFFF" fill-rule="nonzero">
                    <path d="M34.6382979,0.0425531915 L8.93617021,0.0425531915 C4.00864357,0.0425531915 0,4.05119677 0,8.9787234 L0,22.7805851 C0,26.7124335 2.58144945,30.1369681 6.32214094,31.2330452 L10.6379654,35.5492021 C10.8776596,35.7885638 11.2021277,35.9232048 11.540891,35.9232048 C11.8793218,35.9232048 12.2041224,35.7885638 12.4434841,35.5492021 L16.4025931,31.5897607 L34.6382979,31.5897607 C39.5658245,31.5897607 43.5744681,27.581117 43.5744681,22.6535905 L43.5744681,8.9787234 C43.5744681,4.05119677 39.5658245,0.0425531915 34.6382979,0.0425531915 Z M41.0212766,22.6535905 C41.0212766,26.1732048 38.1579123,29.0365692 34.6382979,29.0365692 L15.8740026,29.0365692 C15.5355718,29.0365692 15.2107712,29.1712101 14.9714095,29.4105718 L11.540891,32.8410904 L7.88730051,29.1875 C7.72340426,29.0236037 7.51795217,28.9072473 7.29288562,28.8513963 C4.50232715,28.1569149 2.55319149,25.6605718 2.55319149,22.7805851 L2.55319149,8.9787234 C2.55319149,5.45910902 5.41655583,2.59574468 8.93617021,2.59574468 L34.6382979,2.59574468 C38.1579123,2.59574468 41.0212766,5.45910902 41.0212766,8.9787234 L41.0212766,22.6535905 Z" id="Shape"></path>
                    <path d="M29.8929522,12.2832447 L13.6815159,12.2832447 C12.9763963,12.2832447 12.4049202,12.8550532 12.4049202,13.5598404 C12.4049202,14.2649601 12.9763963,14.8364362 13.6815159,14.8364362 L29.8929522,14.8364362 C30.5980718,14.8364362 31.1695479,14.2649601 31.1695479,13.5598404 C31.1695479,12.8550532 30.5980718,12.2832447 29.8929522,12.2832447 Z" id="Path"></path>
                    <path d="M29.8929522,18.7958776 L13.6815159,18.7958776 C12.9763963,18.7958776 12.4049202,19.3673537 12.4049202,20.0724734 C12.4049202,20.7775931 12.9763963,21.3490691 13.6815159,21.3490691 L29.8929522,21.3490691 C30.5980718,21.3490691 31.1695479,20.7775931 31.1695479,20.0724734 C31.1695479,19.3673537 30.5980718,18.7958776 29.8929522,18.7958776 Z" id="Path"></path>
                </g>
            </g>
        </g>
    </g>
</svg>