<svg xmlns="http://www.w3.org/2000/svg" xmlns:xlink="http://www.w3.org/1999/xlink" width="527.439" height="276.761" viewBox="0 0 527.439 276.761"><defs><style>.a,.d,.e,.j{opacity:0.1;}.b{fill:#3f3d56;}.c,.e{fill:#44a0df;}.f,.j{fill:none;stroke-miterlimit:10;}.f{stroke:#3f3d56;stroke-width:4px;}.g{fill:url(#a);}.h{fill:#be6f72;}.i{fill:#ff6f61;}.j{stroke:#000;}.k{fill:url(#b);}.l{fill:#2f2e41;}.m{fill:#fbbebe;}.n{fill:#e8e8f0;}.o{fill:#f86d70;}</style><linearGradient id="a" x1="0.5" y1="1" x2="0.5" gradientUnits="objectBoundingBox"><stop offset="0" stop-color="gray" stop-opacity="0.251"/><stop offset="0.54" stop-color="gray" stop-opacity="0.122"/><stop offset="1" stop-color="gray" stop-opacity="0.102"/></linearGradient><linearGradient id="b" x1="0.5" y1="1" x2="0.5" y2="-0.001" xlink:href="#a"/></defs><g transform="translate(0 0.359)"><g class="a" transform="translate(204.599 18.891)"><ellipse class="b" cx="5.477" cy="7.17" rx="5.477" ry="7.17" transform="translate(20.641 148.019)"/><path class="b" d="M529.831,448.545a8.662,8.662,0,0,0,1.145-4.384c0-3.961-2.454-7.171-5.481-7.171s-5.5,3.22-5.5,7.18a8.662,8.662,0,0,0,1.145,4.384,8.956,8.956,0,0,0,0,8.763,8.956,8.956,0,0,0,0,8.763A8.634,8.634,0,0,0,520,470.465c0,3.956,2.454,7.17,5.477,7.17s5.481-3.215,5.481-7.17a8.633,8.633,0,0,0-1.145-4.384,8.956,8.956,0,0,0,0-8.763,8.956,8.956,0,0,0,0-8.763Z" transform="translate(-499.378 -324.034)"/><ellipse class="b" cx="5.477" cy="7.17" rx="5.477" ry="7.17" transform="translate(20.641 104.202)"/><ellipse class="b" cx="5.477" cy="7.17" rx="5.477" ry="7.17" transform="translate(20.641 95.439)"/><path class="c" d="M482.766,244.9a25.547,25.547,0,0,1-2.04-3l14.389-2.363-15.563.115a26.285,26.285,0,0,1-.481-20.79L499.951,229.7,480.7,215.538a26.242,26.242,0,1,1,43.312,29.356,26.247,26.247,0,0,1,2.993,4.784l-18.687,9.731,19.918-6.684a26.242,26.242,0,0,1-4.23,24.64,26.237,26.237,0,1,1-41.242,0,26.237,26.237,0,0,1,0-32.445Z" transform="translate(-477.149 -202.271)"/><path class="d" d="M529.624,324.153a26.116,26.116,0,0,1-5.616,16.223,26.237,26.237,0,1,1-41.242,0C479.248,335.91,529.624,321.208,529.624,324.153Z" transform="translate(-477.149 -265.298)"/></g><g class="a" transform="translate(275.135 42.872)"><ellipse class="b" cx="4.095" cy="5.356" rx="4.095" ry="5.356" transform="translate(15.424 110.52)"/><path class="b" d="M663.094,435.953a6.463,6.463,0,0,0,.852-3.272c0-2.96-1.834-5.361-4.091-5.361s-4.1,2.406-4.1,5.361a6.415,6.415,0,0,0,.857,3.272,6.689,6.689,0,0,0,0,6.55,6.689,6.689,0,0,0,0,6.55,6.415,6.415,0,0,0-.857,3.272c0,2.96,1.833,5.361,4.1,5.361s4.091-2.406,4.091-5.361a6.463,6.463,0,0,0-.852-3.272,6.737,6.737,0,0,0,0-6.55A6.737,6.737,0,0,0,663.094,435.953Z" transform="translate(-640.341 -342.999)"/><ellipse class="b" cx="4.095" cy="5.356" rx="4.095" ry="5.356" transform="translate(15.424 77.777)"/><ellipse class="b" cx="4.095" cy="5.356" rx="4.095" ry="5.356" transform="translate(15.424 71.227)"/><path class="c" d="M627.917,283.868a18.761,18.761,0,0,1-1.526-2.243l10.756-1.766-11.632.087a19.654,19.654,0,0,1-.375-15.539l15.607,8.1-14.394-10.587a19.611,19.611,0,1,1,32.383,21.945,19.834,19.834,0,0,1,2.238,3.576l-13.956,7.252,14.885-5a19.615,19.615,0,0,1-3.162,18.412,19.606,19.606,0,1,1-30.8,0,19.606,19.606,0,0,1,0-24.245Z" transform="translate(-623.72 -252.103)"/><path class="d" d="M662.942,342.989a19.523,19.523,0,0,1-4.2,12.122,19.606,19.606,0,1,1-30.8,0C625.309,351.776,662.942,340.79,662.942,342.989Z" transform="translate(-623.73 -299.101)"/></g><g class="a" transform="translate(473.32 -0.359)"><ellipse class="b" cx="5.477" cy="7.17" rx="5.477" ry="7.17" transform="translate(21.01 148.019)"/><path class="b" d="M1080.335,408.545a8.663,8.663,0,0,1-1.145-4.384c0-3.961,2.454-7.17,5.481-7.17s5.477,3.21,5.477,7.17a8.663,8.663,0,0,1-1.145,4.384,8.956,8.956,0,0,1,0,8.763,8.956,8.956,0,0,1,0,8.763,8.634,8.634,0,0,1,1.145,4.384c0,3.956-2.454,7.17-5.477,7.17s-5.481-3.215-5.481-7.17a8.634,8.634,0,0,1,1.145-4.384,8.956,8.956,0,0,1,0-8.763A8.955,8.955,0,0,1,1080.335,408.545Z" transform="translate(-1058.184 -284.034)"/><ellipse class="b" cx="5.477" cy="7.17" rx="5.477" ry="7.17" transform="translate(21.01 104.202)"/><ellipse class="b" cx="5.477" cy="7.17" rx="5.477" ry="7.17" transform="translate(21.01 95.439)"/><path class="c" d="M1082.529,204.9a25.545,25.545,0,0,0,2.041-3l-14.389-2.363,15.563.115a26.286,26.286,0,0,0,.481-20.79L1065.344,189.7l19.25-14.158a26.242,26.242,0,1,0-43.312,29.356,26.249,26.249,0,0,0-2.993,4.784l18.686,9.731-19.918-6.684a26.242,26.242,0,0,0,4.23,24.64,26.237,26.237,0,1,0,41.242,0,26.237,26.237,0,0,0,0-32.445Z" transform="translate(-1035.541 -162.271)"/><path class="d" d="M1035.81,284.153a26.117,26.117,0,0,0,5.616,16.223,26.237,26.237,0,1,0,41.242,0C1086.186,295.91,1035.81,281.208,1035.81,284.153Z" transform="translate(-1035.68 -225.298)"/></g><g class="a" transform="translate(427.224 39.984)"><ellipse class="b" cx="4.095" cy="5.356" rx="4.095" ry="5.356" transform="translate(15.618 110.52)"/><path class="b" d="M973.081,429.953a6.464,6.464,0,0,1-.852-3.272c0-2.96,1.834-5.361,4.091-5.361s4.1,2.406,4.1,5.361a6.415,6.415,0,0,1-.857,3.272,6.689,6.689,0,0,1,0,6.55,6.689,6.689,0,0,1,0,6.55,6.414,6.414,0,0,1,.857,3.272c0,2.96-1.834,5.361-4.1,5.361s-4.091-2.406-4.091-5.361a6.463,6.463,0,0,1,.852-3.272,6.737,6.737,0,0,1,0-6.55,6.737,6.737,0,0,1,0-6.55Z" transform="translate(-956.602 -336.999)"/><ellipse class="b" cx="4.095" cy="5.356" rx="4.095" ry="5.356" transform="translate(15.618 77.777)"/><ellipse class="b" cx="4.095" cy="5.356" rx="4.095" ry="5.356" transform="translate(15.618 71.227)"/><path class="c" d="M974.792,277.868a18.768,18.768,0,0,0,1.526-2.243l-10.756-1.766,11.631.087a19.653,19.653,0,0,0,.375-15.539l-15.607,8.1,14.394-10.587a19.611,19.611,0,1,0-32.383,21.945,19.828,19.828,0,0,0-2.238,3.576l13.956,7.252-14.856-4.99A19.615,19.615,0,0,0,944,302.113a19.606,19.606,0,1,0,30.8,0,19.606,19.606,0,0,0,0-24.245Z" transform="translate(-939.756 -246.103)"/><path class="d" d="M939.789,336.989a19.524,19.524,0,0,0,4.2,12.122,19.606,19.606,0,1,0,30.8,0C977.422,345.776,939.789,334.79,939.789,336.989Z" transform="translate(-939.768 -293.101)"/></g><g class="a" transform="translate(3.517 -0.278)"><ellipse class="b" cx="5.477" cy="7.17" rx="5.477" ry="7.17" transform="translate(20.646 147.939)"/><path class="b" d="M112.017,408.545a8.662,8.662,0,0,0,1.145-4.384c0-3.961-2.454-7.17-5.477-7.17s-5.477,3.21-5.477,7.17a8.663,8.663,0,0,0,1.141,4.384,8.985,8.985,0,0,0,0,8.763,8.985,8.985,0,0,0,0,8.763,8.629,8.629,0,0,0-1.141,4.384c0,3.956,2.45,7.17,5.477,7.17s5.491-3.205,5.491-7.161a8.634,8.634,0,0,0-1.145-4.384,8.956,8.956,0,0,0,0-8.763,8.956,8.956,0,0,0,0-8.763Z" transform="translate(-81.564 -284.114)"/><ellipse class="b" cx="5.477" cy="7.17" rx="5.477" ry="7.17" transform="translate(20.646 104.122)"/><ellipse class="b" cx="5.477" cy="7.17" rx="5.477" ry="7.17" transform="translate(20.646 95.358)"/><path class="c" d="M64.935,204.991a26.143,26.143,0,0,1-2.04-3l14.394-2.363-15.578.14a26.285,26.285,0,0,1-.481-20.79l20.886,10.833-19.25-14.158a26.237,26.237,0,1,1,43.312,29.356,26.246,26.246,0,0,1,2.993,4.784L90.479,219.5l19.923-6.684a26.271,26.271,0,0,1-4.235,24.64,26.237,26.237,0,1,1-41.242,0,26.237,26.237,0,0,1,0-32.445Z" transform="translate(-59.309 -162.439)"/><path class="d" d="M111.784,284.153a26.117,26.117,0,0,1-5.616,16.223,26.237,26.237,0,1,1-41.242,0C61.408,295.91,111.784,281.208,111.784,284.153Z" transform="translate(-59.309 -225.379)"/></g><g class="a" transform="translate(62.985 39.984)"><ellipse class="b" cx="4.095" cy="5.356" rx="4.095" ry="5.356" transform="translate(15.424 110.52)"/><path class="b" d="M222.264,429.953a6.463,6.463,0,0,0,.852-3.272c0-2.96-1.829-5.361-4.091-5.361s-4.1,2.406-4.1,5.361a6.463,6.463,0,0,0,.857,3.272,6.689,6.689,0,0,0,0,6.55,6.689,6.689,0,0,0,0,6.55,6.464,6.464,0,0,0-.857,3.272c0,2.96,1.834,5.361,4.1,5.361s4.091-2.406,4.091-5.361a6.463,6.463,0,0,0-.852-3.272,6.737,6.737,0,0,0,0-6.55,6.737,6.737,0,0,0,0-6.55Z" transform="translate(-199.506 -336.998)"/><ellipse class="b" cx="4.095" cy="5.356" rx="4.095" ry="5.356" transform="translate(15.424 77.777)"/><ellipse class="b" cx="4.095" cy="5.356" rx="4.095" ry="5.356" transform="translate(15.424 71.227)"/><path class="c" d="M187.077,277.868a19.349,19.349,0,0,1-1.526-2.243l10.756-1.766-11.632.087a19.654,19.654,0,0,1-.375-15.539l15.607,8.1-14.394-10.587A19.611,19.611,0,1,1,217.9,277.863a19.309,19.309,0,0,1,2.238,3.576l-13.956,7.252,14.885-5a19.615,19.615,0,0,1-3.162,18.412,19.606,19.606,0,1,1-30.8,0,19.606,19.606,0,0,1,0-24.245Z" transform="translate(-182.88 -246.103)"/><path class="d" d="M222.1,336.989a19.524,19.524,0,0,1-4.2,12.122,19.606,19.606,0,1,1-30.8,0C184.459,345.776,222.1,334.79,222.1,336.989Z" transform="translate(-182.89 -293.101)"/></g><ellipse class="e" cx="263.72" cy="4.264" rx="263.72" ry="4.264" transform="translate(0 232.864)"/><ellipse class="e" cx="263.72" cy="4.264" rx="263.72" ry="4.264" transform="translate(0 267.874)"/><ellipse class="e" cx="263.72" cy="4.264" rx="263.72" ry="4.264" transform="translate(0 159.797)"/><ellipse class="e" cx="263.72" cy="4.264" rx="263.72" ry="4.264" transform="translate(0 196.328)"/><path class="e" d="M832.346,260.363a8.807,8.807,0,0,0-5.1.558,7.531,7.531,0,0,1-6.131,0,8.6,8.6,0,0,0-7.219.14,4.447,4.447,0,0,1-2.074.52c-2.926,0-5.356-2.945-5.862-6.829a5.716,5.716,0,0,0,1.444-1.574,8.213,8.213,0,0,1,14.663-.053,5.621,5.621,0,0,0,4.856,2.666H827C829.353,255.767,831.369,257.634,832.346,260.363Z" transform="translate(-443.124 -207.435)"/><path class="e" d="M841.244,236.45l-4.726,2.993,2.887-5.217a4.668,4.668,0,0,0-2.859-1.015h-.077a5.461,5.461,0,0,1-.962-.072l-1.627,1.015.688-1.251a5.673,5.673,0,0,1-2.806-2.127l-2.887,1.819,1.809-3.292a8.386,8.386,0,0,0-6.42-3.244,8.806,8.806,0,0,0-7.353,4.533,5.491,5.491,0,0,1-4.856,2.618H811.9c-3.292,0-5.958,3.73-5.958,8.33s2.666,8.335,5.958,8.335a4.518,4.518,0,0,0,2.074-.52,8.6,8.6,0,0,1,7.219-.144,7.483,7.483,0,0,0,6.131,0,8.624,8.624,0,0,1,7.151.14,4.475,4.475,0,0,0,2.05.51c3.292,0,5.958-3.734,5.958-8.335A10.552,10.552,0,0,0,841.244,236.45Z" transform="translate(-443.114 -195.721)"/><path class="e" d="M423.36,258.745a6.179,6.179,0,0,0-3.576.39,5.255,5.255,0,0,1-4.288,0,6.006,6.006,0,0,0-5.048.1,3.186,3.186,0,0,1-1.444.361c-2.045,0-3.749-2.06-4.1-4.779a4,4,0,0,0,1.025-1.1,5.751,5.751,0,0,1,10.265-.038,3.941,3.941,0,0,0,3.4,1.867h.053C421.262,255.535,422.672,256.844,423.36,258.745Z" transform="translate(-235.07 -208.42)"/><path class="e" d="M429.582,242.016l-3.306,2.1,2.007-3.653a3.248,3.248,0,0,0-2-.712h-.058a3.606,3.606,0,0,1-.683-.053l-1.121.712.481-.876a3.994,3.994,0,0,1-1.963-1.487l-2.007,1.27,1.271-2.3a5.876,5.876,0,0,0-4.495-2.276,6.155,6.155,0,0,0-5.144,3.176,3.85,3.85,0,0,1-3.4,1.834h-.111c-2.305,0-4.172,2.608-4.172,5.833s1.867,5.833,4.172,5.833a3.128,3.128,0,0,0,1.444-.366,6.015,6.015,0,0,1,5.043-.1,5.169,5.169,0,0,0,4.293.029,6.035,6.035,0,0,1,5,.1,3.119,3.119,0,0,0,1.444.356c2.3,0,4.168-2.613,4.168-5.833A7.377,7.377,0,0,0,429.582,242.016Z" transform="translate(-235.06 -200.224)"/><path class="e" d="M321.59,337.155a6.17,6.17,0,0,1,3.571.39,5.265,5.265,0,0,0,4.293,0,6.025,6.025,0,0,1,5.048.1,3.113,3.113,0,0,0,1.444.366c2.045,0,3.749-2.064,4.1-4.783a3.923,3.923,0,0,1-1.02-1.1,5.756,5.756,0,0,0-10.27-.034,3.942,3.942,0,0,1-3.4,1.867h-.053C323.683,333.965,322.269,335.269,321.59,337.155Z" transform="translate(-191.852 -249.096)"/><path class="e" d="M307.71,320.462l3.311,2.1-2.012-3.648a3.268,3.268,0,0,1,2-.717h.053a4.1,4.1,0,0,0,.688-.048l1.121.707-.481-.871a3.99,3.99,0,0,0,1.959-1.487l2.007,1.271-1.251-2.305a5.871,5.871,0,0,1,4.495-2.271,6.162,6.162,0,0,1,5.144,3.176,3.85,3.85,0,0,0,3.4,1.834h.116c2.3,0,4.168,2.613,4.168,5.833s-1.867,5.833-4.168,5.833a3.123,3.123,0,0,1-1.444-.361,6.006,6.006,0,0,0-5.048-.1,5.226,5.226,0,0,1-2.156.481,5.293,5.293,0,0,1-2.137-.452,6.025,6.025,0,0,0-5,.1,3.119,3.119,0,0,1-1.444.356c-2.305,0-4.172-2.608-4.172-5.833a7.43,7.43,0,0,1,.852-3.59Z" transform="translate(-184.21 -240.921)"/><path class="f" d="M710.489,597.653c1.256-2.329-.168-5.178-1.8-7.252s-3.638-4.235-3.595-6.877c.063-3.8,4.1-6.044,7.315-8.056a35.757,35.757,0,0,0,6.569-5.294,9.688,9.688,0,0,0,2.016-2.7,10.939,10.939,0,0,0,.606-4.812q-.207-8.128-.8-16.247" transform="translate(-390.796 -361.906)"/><path class="c" d="M737.685,539.759a5.924,5.924,0,0,0-2.96-4.856l-1.328,2.623.043-3.176a5.924,5.924,0,1,0,4.245,5.409Z" transform="translate(-401.563 -355.524)"/><path class="c" d="M716.425,619.917a5.924,5.924,0,0,1-11.184-2.406,5.776,5.776,0,0,1,.385-2.406,5.929,5.929,0,0,1,11.069.063l-3.7,3.013,4.071-.962A5.891,5.891,0,0,1,716.425,619.917Z" transform="translate(-390.871 -395.586)"/><path class="c" d="M715.723,592.5a5.924,5.924,0,0,1-1.877-11.622l-.034,2.44,1.343-2.656h0a5.926,5.926,0,1,1,.553,11.839Z" transform="translate(-393.095 -379.671)"/><path class="c" d="M745.584,572.617a5.924,5.924,0,1,1,2.618-11.068l-1.044,2.887,2.132-2.108a5.924,5.924,0,0,1-3.725,10.284Z" transform="translate(-408.572 -369.358)"/><path class="d" d="M736.876,544.84c-1.367.149-2.695.573-4.071.659a4.405,4.405,0,0,1-3.744-1.309,18.99,18.99,0,0,1-1.1-1.925,4.217,4.217,0,0,0-1.492-1.405A5.924,5.924,0,1,0,737.54,544.8C737.324,544.8,737.1,544.816,736.876,544.84Z" transform="translate(-401.553 -359.027)"/><path class="d" d="M745.612,576.271a5.924,5.924,0,0,1-5.635-8.451,4.387,4.387,0,0,1,1.189,1.193,20.08,20.08,0,0,0,1.174,1.959,4.833,4.833,0,0,0,3.932,1.371c1.429-.072,2.81-.481,4.235-.6.2,0,.395-.029.6-.034A5.924,5.924,0,0,1,745.612,576.271Z" transform="translate(-408.599 -373.012)"/><path class="d" d="M715.725,596.28a5.924,5.924,0,0,1-5.683-8.34,4.812,4.812,0,0,1,1.256,1.2,19.853,19.853,0,0,0,1.285,2,5.365,5.365,0,0,0,4.192,1.444c1.511-.063,2.887-.39,4.331-.481a5.934,5.934,0,0,1-5.38,4.177Z" transform="translate(-393.097 -383.45)"/><path class="d" d="M716.425,623.982a5.924,5.924,0,0,1-11.184-2.406,5.776,5.776,0,0,1,.385-2.406,5.915,5.915,0,0,1,1.3,1.16c.563.683.934,1.444,1.588,2.1a7.4,7.4,0,0,0,4.9,1.723A24.9,24.9,0,0,0,716.425,623.982Z" transform="translate(-390.871 -399.651)"/><path class="f" d="M100.489,525.653c1.256-2.329-.168-5.178-1.8-7.252s-3.638-4.245-3.595-6.877c.063-3.8,4.1-6.044,7.315-8.056a35.759,35.759,0,0,0,6.569-5.294,9.688,9.688,0,0,0,2.016-2.7,10.938,10.938,0,0,0,.606-4.812q-.212-8.128-.8-16.247" transform="translate(-74.353 -324.555)"/><path class="c" d="M127.685,467.759a5.924,5.924,0,0,0-2.96-4.856l-1.328,2.623.043-3.176a5.924,5.924,0,1,0,4.245,5.409Z" transform="translate(-85.119 -318.173)"/><path class="c" d="M106.425,547.917a5.924,5.924,0,0,1-11.184-2.406,5.775,5.775,0,0,1,.385-2.406,5.929,5.929,0,0,1,11.069.063l-3.7,3.013,4.071-.963a5.891,5.891,0,0,1-.64,2.7Z" transform="translate(-74.427 -358.235)"/><path class="c" d="M105.723,520.5a5.924,5.924,0,0,1-1.877-11.622l-.034,2.44,1.343-2.656h0a5.926,5.926,0,1,1,.553,11.839Z" transform="translate(-76.651 -342.321)"/><path class="c" d="M135.584,500.617a5.924,5.924,0,1,1,2.618-11.069l-1.044,2.887,2.132-2.108a5.924,5.924,0,0,1-3.725,10.284Z" transform="translate(-92.128 -332.008)"/><path class="d" d="M126.876,472.84c-1.367.149-2.695.573-4.071.659a4.4,4.4,0,0,1-3.744-1.309,19,19,0,0,1-1.1-1.925,4.216,4.216,0,0,0-1.492-1.405A5.924,5.924,0,1,0,127.54,472.8C127.324,472.8,127.1,472.816,126.876,472.84Z" transform="translate(-85.109 -321.676)"/><path class="d" d="M135.612,504.271a5.924,5.924,0,0,1-5.635-8.451,4.384,4.384,0,0,1,1.189,1.193,20.08,20.08,0,0,0,1.174,1.959,4.833,4.833,0,0,0,3.932,1.372c1.429-.072,2.81-.481,4.235-.6.2,0,.395-.029.6-.034A5.924,5.924,0,0,1,135.612,504.271Z" transform="translate(-92.156 -335.662)"/><path class="d" d="M105.725,524.28a5.924,5.924,0,0,1-5.683-8.34,4.813,4.813,0,0,1,1.256,1.2,19.85,19.85,0,0,0,1.285,2,5.365,5.365,0,0,0,4.192,1.444c1.511-.063,2.887-.39,4.331-.481A5.934,5.934,0,0,1,105.725,524.28Z" transform="translate(-76.653 -346.099)"/><path class="d" d="M106.425,551.982a5.924,5.924,0,0,1-11.184-2.406,5.775,5.775,0,0,1,.385-2.406,5.916,5.916,0,0,1,1.3,1.16c.563.683.934,1.444,1.588,2.1a7.4,7.4,0,0,0,4.9,1.723,24.879,24.879,0,0,0,3.008-.173Z" transform="translate(-74.427 -362.3)"/><path class="f" d="M500.53,443.293c-1.256-2.324.168-5.173,1.809-7.248s3.633-4.235,3.59-6.877c-.058-3.8-4.091-6.044-7.315-8.056a35.612,35.612,0,0,1-6.564-5.294,9.519,9.519,0,0,1-2.021-2.7,11.09,11.09,0,0,1-.606-4.812q.217-8.128.8-16.247" transform="translate(-278.909 -281.835)"/><path class="c" d="M478.383,385.4a5.919,5.919,0,0,1,2.955-4.856l1.328,2.623-.038-3.176a6.073,6.073,0,0,1,1.949-.236,5.924,5.924,0,1,1-6.194,5.645Z" transform="translate(-273.187 -275.449)"/><path class="c" d="M499.634,465.506a5.924,5.924,0,1,0-.284-4.769l3.7,3.013-4.071-.962A5.891,5.891,0,0,0,499.634,465.506Z" transform="translate(-283.875 -315.458)"/><path class="c" d="M500.332,438.141a5.924,5.924,0,0,0,1.882-11.622l.029,2.44L500.9,426.3h0a5.924,5.924,0,0,0-6.208,5.626,5.853,5.853,0,0,0,.255,2.021,5.919,5.919,0,0,0,5.385,4.192Z" transform="translate(-281.647 -299.595)"/><path class="c" d="M470.436,418.236a5.924,5.924,0,1,0-2.623-11.069l1.049,2.887-2.156-2.065a5.876,5.876,0,0,0-1.925,4.091,5.732,5.732,0,0,0,.149,1.631A5.919,5.919,0,0,0,470.436,418.236Z" transform="translate(-266.13 -289.272)"/><path class="d" d="M479.334,390.48c1.367.149,2.695.573,4.066.659a4.425,4.425,0,0,0,3.749-1.309,18.951,18.951,0,0,0,1.092-1.925,4.231,4.231,0,0,1,1.5-1.405,5.924,5.924,0,1,1-11.069,3.932C478.887,390.437,479.108,390.456,479.334,390.48Z" transform="translate(-273.339 -278.951)"/><path class="d" d="M470.621,421.891a5.929,5.929,0,0,0,5.635-8.451,4.4,4.4,0,0,0-1.193,1.193,20.062,20.062,0,0,1-1.174,1.959,4.817,4.817,0,0,1-3.927,1.372c-1.429-.072-2.81-.481-4.235-.6-.2,0-.4-.029-.6-.034A5.919,5.919,0,0,0,470.621,421.891Z" transform="translate(-266.315 -292.926)"/><path class="d" d="M500.62,441.92a5.919,5.919,0,0,0,5.683-8.34,4.73,4.73,0,0,0-1.251,1.2,19.835,19.835,0,0,1-1.285,2,5.375,5.375,0,0,1-4.2,1.444c-1.516-.063-2.887-.39-4.331-.481A5.919,5.919,0,0,0,500.62,441.92Z" transform="translate(-281.935 -303.374)"/><path class="d" d="M500.34,469.622a5.924,5.924,0,0,0,10.8-4.812,5.69,5.69,0,0,0-1.3,1.16c-.563.683-.962,1.444-1.588,2.1a7.416,7.416,0,0,1-4.909,1.723A25.972,25.972,0,0,1,500.34,469.622Z" transform="translate(-284.581 -319.575)"/><circle class="b" cx="48.105" cy="48.105" r="48.105" transform="translate(327.133 66.331)"/><path class="c" d="M828.745,389.581a36.448,36.448,0,0,0-7.7-5.145c-2.305-1.107-3.152-1.088-4.784.091-1.357.962-2.238,1.891-3.8,1.55s-4.649-2.671-7.637-5.65-5.308-6.049-5.64-7.632.582-2.445,1.554-3.8c1.174-1.631,1.208-2.478.091-4.784a36.905,36.905,0,0,0-5.149-7.7c-1.689-1.684-2.055-1.314-2.979-.962a17.232,17.232,0,0,0-2.729,1.444,8.233,8.233,0,0,0-3.272,3.46c-.659,1.405-1.405,4.014,2.43,10.842a60.489,60.489,0,0,0,10.635,14.182h0A60.578,60.578,0,0,0,814,396.13c6.824,3.85,9.437,3.085,10.842,2.43a8.079,8.079,0,0,0,3.455-3.272,17,17,0,0,0,1.444-2.729C830.059,391.636,830.435,391.26,828.745,389.581Z" transform="translate(-432.858 -262.739)"/><path class="d" d="M779.828,300.86a48.124,48.124,0,1,0,48.1,48.108A48.124,48.124,0,0,0,779.828,300.86Zm0,89.809a41.709,41.709,0,1,1,41.709-41.709A41.709,41.709,0,0,1,779.828,390.669Z" transform="translate(-404.59 -234.524)"/><circle class="b" cx="48.105" cy="48.105" r="48.105" transform="translate(216.616 139.398)"/><path class="c" d="M599.433,522.33l-14.4,14.654a.26.26,0,0,0,0,.375l10.106,10.746a1.739,1.739,0,1,1-2.459,2.459l-10.053-10.708a.274.274,0,0,0-.385,0l-2.45,2.474a10.765,10.765,0,0,1-7.7,3.239,11,11,0,0,1-7.835-3.33l-2.353-2.406a.274.274,0,0,0-.385,0l-10.029,10.684a1.739,1.739,0,1,1-2.459-2.459L559.1,537.335a.288.288,0,0,0,0-.375l-14.4-14.654a.265.265,0,0,0-.452.188v29.322a4.293,4.293,0,0,0,4.278,4.278h47.1a4.293,4.293,0,0,0,4.278-4.278v-29.3a.265.265,0,0,0-.462-.188Z" transform="translate(-307.354 -349.361)"/><path class="c" d="M573.844,537.111a7.286,7.286,0,0,0,5.255-2.166l20.977-21.353a4.187,4.187,0,0,0-2.647-.962H550.3a4.158,4.158,0,0,0-2.647.962l20.982,21.353A7.257,7.257,0,0,0,573.844,537.111Z" transform="translate(-309.123 -344.382)"/><path class="d" d="M548.918,452.69a48.124,48.124,0,1,0,48.1,48.108A48.124,48.124,0,0,0,548.918,452.69Zm0,89.809a41.709,41.709,0,1,1,41.709-41.709A41.709,41.709,0,0,1,548.918,542.5Z" transform="translate(-284.804 -313.288)"/><circle class="b" cx="48.105" cy="48.105" r="48.105" transform="translate(102.451 103.473)"/><path class="c" d="M344.177,430.16,325,474.405l1.79,1.79,17.392-7.671,17.392,7.671,1.79-1.79Z" transform="translate(-193.621 -301.6)"/><path class="d" d="M312.948,378a48.1,48.1,0,1,0,.008,0Zm0,89.809a34.338,34.338,0,1,1,0,.019Z" transform="translate(-162.392 -274.541)"/><path class="g" d="M816.168,581.355q-.654-1.6-1.343-3.186a9.456,9.456,0,0,0-1.641-2.834,3,3,0,0,0-.962-.722,4.106,4.106,0,0,0-1.256-.25,10.028,10.028,0,0,0-1.973-.053c-.255-.077-.544-.178-.828-.294a6.872,6.872,0,0,0,5.12-6.376c0-.1,0-.2,0-.294a6.858,6.858,0,0,0-6.829-6.887,6.737,6.737,0,0,0-3.585,1.025,6.434,6.434,0,0,0-7.219,3.479,7.955,7.955,0,0,0-2.454,5.919v.3c.125,3.739,2.541,6.737,5.592,7.041a3.205,3.205,0,0,0-.885.592,5.477,5.477,0,0,0-1.189,3.629l-.072.962-1.617.578a.3.3,0,0,0-.072.525l1.545,1.1v.274a1.205,1.205,0,0,0,.029.313,2.21,2.21,0,0,0-.6.852,3.936,3.936,0,0,0-.14,1.559l.058,1.343a10.544,10.544,0,0,0,.409,2.988c.2.6,1.078,2.036,1.708,2.045a62.253,62.253,0,0,0-.736,8.229c-.072.072.13.139.481.2.346,2.656,1.477,10.106,3.484,13.383a28.225,28.225,0,0,1,.756,3.253s.573,7.079,1.328,9.182a46.745,46.745,0,0,1,1.295,7.488.736.736,0,0,0-.534.549c-.38,1.145-2.844,2.887-2.844,2.887a11.922,11.922,0,0,0-2.127,1.362c-.775.7-.746,1.328,2.7.934,6.641-.765,7.777-2.887,7.777-2.887s-.106-.356-.265-.818a8.884,8.884,0,0,0-.871-2.055c-.1-.091-.193.063-.308.3a41.2,41.2,0,0,1-.452-9.293,15.077,15.077,0,0,0-.76-5.549,10.507,10.507,0,0,1,0-3.633c.38-1.53-1.516-8.994-1.516-8.994l-1.088-5.5a1.578,1.578,0,0,1,.3.64l.029.111.029.159a.3.3,0,0,0,.077.149c.741,3.08,2.772,11.612,2.772,12.863,0,1.53,1.9,5.356,1.9,5.356s.755,6.314,2.084,8.8a12.755,12.755,0,0,1,.987,5.886h0a5.452,5.452,0,0,1-.606,1.954,4.647,4.647,0,0,0-.717,1.246l-.043.091s-.568,1.15-.188,1.343a9.322,9.322,0,0,0,4.553.573s.76-.963.76-1.338a6.026,6.026,0,0,0-.087-.683c-.14-.9-.4-2.329-.4-2.344a6.568,6.568,0,0,0-.481-2.329l-.193-5.356a24.727,24.727,0,0,0-1.328-10.717s-.963-3.441-.756-4.4-.38-11.1-.38-11.1l-.058-.144a10.961,10.961,0,0,1,.058-2.151,28.576,28.576,0,0,0-.76-7.267,6.309,6.309,0,0,1-.269-1.583c.043-.4.173-1.569.351-3.022a54.312,54.312,0,0,0,5.592-.481.7.7,0,0,0,.481-.193.674.674,0,0,0,.111-.39C818.314,586.822,817.26,584.021,816.168,581.355Zm-3.816,6.068c.2-1.372.409-2.7.621-3.686l.029.087a26.767,26.767,0,0,1,.914,3.032A10.314,10.314,0,0,1,812.351,587.424Z" transform="translate(-436.503 -369.194)"/><path class="h" d="M802.37,648.275s1.136,10.217,3.595,14.187a27.545,27.545,0,0,1,.756,3.215s.568,7,1.323,9.076a50.079,50.079,0,0,1,1.323,7.758s2.647,3.022,3.595.568a39.854,39.854,0,0,1-.568-9.836,14.814,14.814,0,0,0-.755-5.486,10.26,10.26,0,0,1,0-3.59c.375-1.516-1.516-8.888-1.516-8.888l-1.511-7.377Z" transform="translate(-441.262 -414.555)"/><path class="i" d="M815.433,721.839s-1.136,2.079-7.753,2.834c-3.436.39-3.46-.231-2.685-.924a11.982,11.982,0,0,1,2.117-1.347s2.459-1.7,2.835-2.834,1.7-.188,1.7-.188c1.891,2.835,2.271-.76,2.647-.38a8.535,8.535,0,0,1,.871,2.026C815.327,721.482,815.433,721.839,815.433,721.839Z" transform="translate(-442.409 -451.423)"/><path class="d" d="M815.433,724.053s-1.136,2.079-7.753,2.834c-3.436.39-3.46-.231-2.685-.924.539.342,1.627.481,3.816-.4,3.152-1.29,5.438-2.036,6.357-2.324C815.327,723.7,815.433,724.053,815.433,724.053Z" transform="translate(-442.409 -453.638)"/><path class="d" d="M817.712,673.242a14.815,14.815,0,0,0-.756-5.486,10.257,10.257,0,0,1,0-3.59c.375-1.516-1.516-8.888-1.516-8.888l-1.511-7.377-1.309.077,1.5,7.3s1.891,7.373,1.516,8.888a10.257,10.257,0,0,0,0,3.59,14.379,14.379,0,0,1,.755,5.486,39.861,39.861,0,0,0,.568,9.837,1.655,1.655,0,0,1-.549.78,1.236,1.236,0,0,0,1.872-.78A39.86,39.86,0,0,1,817.712,673.242Z" transform="translate(-446.579 -414.555)"/><path class="b" d="M806.367,562.42a6.739,6.739,0,0,0-3.571,1.015,6.425,6.425,0,0,0-7.219,3.441,7.834,7.834,0,0,0-2.449,5.852c0,4.023,2.709,7.281,6.049,7.281a6.109,6.109,0,0,0,5.481-4.192,6.646,6.646,0,0,0,1.7.221,6.81,6.81,0,0,0,0-13.619Z" transform="translate(-436.467 -370.211)"/><path class="h" d="M824.054,650.65l.568,1.511s.568,10.024.375,10.972.76,4.331.76,4.331a24.213,24.213,0,0,1,1.323,10.587l.188,5.294s.756,2.079.38,2.459-3.229-.337-3.229-.337.38-3.97-.962-6.429-2.079-8.7-2.079-8.7-1.891-3.783-1.891-5.294-3.027-13.807-3.027-13.807Z" transform="translate(-448.571 -415.981)"/><path class="b" d="M801.564,637.426s.193-6.81.962-8.888a14.115,14.115,0,0,0,.842-3.017s11.449,2.069,12.4,1.314a16.427,16.427,0,0,0,.38,2.835,27.194,27.194,0,0,1,.756,7.19c-.207,2.271,0,2.267,0,2.267s-7.758,1.136-7.945,0-.755-1.131-.755-1.131S801.189,637.782,801.564,637.426Z" transform="translate(-440.836 -402.945)"/><g class="a" transform="translate(360.728 223.889)"><path d="M807.822,649.84s-4.784-.13-6.227-.39v.39c-.375.375,6.622.568,6.622.568a.482.482,0,0,1,.26.106C808.221,649.84,807.822,649.84,807.822,649.84Z" transform="translate(-801.58 -639.248)"/><path d="M824.037,631.084a16.418,16.418,0,0,1-.38-2.834.812.812,0,0,1-.322.115,9.563,9.563,0,0,0,.322,2.151,30.042,30.042,0,0,1,.756,7.19c-.207,2.271,0,2.267,0,2.267s-6.136.9-7.623.3a2.3,2.3,0,0,0,.058.27c.188,1.136,7.945,0,7.945,0s-.193,0,0-2.267A28.113,28.113,0,0,0,824.037,631.084Z" transform="translate(-809.47 -628.25)"/><path d="M807.822,649.84s-4.784-.13-6.227-.39v.39c-.375.375,6.622.568,6.622.568a.482.482,0,0,1,.26.106C808.221,649.84,807.822,649.84,807.822,649.84Z" transform="translate(-801.58 -639.248)"/><path d="M824.037,631.084a16.418,16.418,0,0,1-.38-2.834.812.812,0,0,1-.322.115,9.563,9.563,0,0,0,.322,2.151,30.042,30.042,0,0,1,.756,7.19c-.207,2.271,0,2.267,0,2.267s-6.136.9-7.623.3a2.3,2.3,0,0,0,.058.27c.188,1.136,7.945,0,7.945,0s-.193,0,0-2.267A28.113,28.113,0,0,0,824.037,631.084Z" transform="translate(-809.47 -628.25)"/></g><path class="h" d="M814.511,585.084a2.508,2.508,0,0,0,.722.934,1.615,1.615,0,0,0,.678.293c-.423.245-.885.428-1.309.674a23.275,23.275,0,0,0-1.925,1.444,3.917,3.917,0,0,1-2.209.857,2.7,2.7,0,0,0,.308-2.69,2.513,2.513,0,0,1-.337-.934,1.677,1.677,0,0,1,.929-1.251c.361-.245.732-.481,1.107-.717.294-.183.736-.568,1.107-.553s.414.342.481.678A5.343,5.343,0,0,0,814.511,585.084Z" transform="translate(-445.448 -380.959)"/><path class="d" d="M814.511,585.084a2.508,2.508,0,0,0,.722.934,1.615,1.615,0,0,0,.678.293c-.423.245-.885.428-1.309.674a23.275,23.275,0,0,0-1.925,1.444,3.917,3.917,0,0,1-2.209.857,2.7,2.7,0,0,0,.308-2.69,2.513,2.513,0,0,1-.337-.934,1.677,1.677,0,0,1,.929-1.251c.361-.245.732-.481,1.107-.717.294-.183.736-.568,1.107-.553s.414.342.481.678A5.343,5.343,0,0,0,814.511,585.084Z" transform="translate(-445.448 -380.959)"/><circle class="h" cx="4.35" cy="4.35" r="4.35" transform="translate(369.145 206.584)"/><path class="i" d="M835.032,724.79c0,.38-.756,1.323-.756,1.323a9.366,9.366,0,0,1-4.538-.568c-.38-.188.188-1.323.188-1.323l.043-.091a4.59,4.59,0,0,1,.717-1.232,5.385,5.385,0,0,0,.6-1.925c1.174-1.925,3.258.832,3.258.832s.265,1.444.4,2.32A6.591,6.591,0,0,1,835.032,724.79Z" transform="translate(-455.391 -452.108)"/><path class="d" d="M835.032,728.914c0,.38-.756,1.323-.756,1.323a9.364,9.364,0,0,1-4.538-.568c-.38-.188.188-1.323.188-1.323l.043-.091a9.143,9.143,0,0,0,4.119.847l.861-.861C835,728.563,835.032,728.818,835.032,728.914Z" transform="translate(-455.391 -456.232)"/><circle class="h" cx="4.254" cy="4.254" r="4.254" transform="translate(360.54 197.599)"/><path class="h" d="M801.414,598.913a5.341,5.341,0,0,0-1.184,3.585l-.144,1.882a9.494,9.494,0,0,0-.034,1.525c0,.313.077.63.106.962s.038.751.043,1.131v2.782a3.282,3.282,0,0,0,.308,1.67,1.136,1.136,0,0,0,1.444.52,1.646,1.646,0,0,0,.6-.924,14.368,14.368,0,0,0,.963-3.523c.038-.419.043-.837.082-1.256s.111-.857.173-1.28c.269-1.771.39-3.561.51-5.347.034-.529.51-2.613-.183-2.844-.337-.111-1.035.236-1.357.351a3.82,3.82,0,0,0-1.323.765Z" transform="translate(-440.051 -388.552)"/><path class="d" d="M801.414,598.913a5.341,5.341,0,0,0-1.184,3.585l-.144,1.882a9.494,9.494,0,0,0-.034,1.525c0,.313.077.63.106.962s.038.751.043,1.131v2.782a3.282,3.282,0,0,0,.308,1.67,1.136,1.136,0,0,0,1.444.52,1.646,1.646,0,0,0,.6-.924,14.368,14.368,0,0,0,.963-3.523c.038-.419.043-.837.082-1.256s.111-.857.173-1.28c.269-1.771.39-3.561.51-5.347.034-.529.51-2.613-.183-2.844-.337-.111-1.035.236-1.357.351a3.82,3.82,0,0,0-1.323.765Z" transform="translate(-440.051 -388.552)"/><path class="i" d="M812.536,588.16a23.327,23.327,0,0,1-5.106,3.027s-1.121,1.28-1.314,1.588-.578,3.706-.962,4.466a3.614,3.614,0,0,0,0,4.158,7.211,7.211,0,0,1,.188,2.271c-.188.568-.876,2.647-.25,2.743s2.522,1.415,4.22,1.039,8.042,1.444,8.042,1.444,1.049-9.745,1.809-11.468l-1.7-.568s-4.726-2.834-1.891-7.185C815.563,589.676,812.906,589.108,812.536,588.16Z" transform="translate(-442.351 -383.564)"/><path class="b" d="M796.71,610.509l3.908,2.767a.289.289,0,0,0,.342,0l1.059-.794a.3.3,0,0,0,0-.452l-3.008-2.671a.289.289,0,0,0-.294-.058l-1.93.693a.294.294,0,0,0-.077.515Z" transform="translate(-438.263 -394.522)"/><path class="h" d="M799.041,621.123a10.478,10.478,0,0,1-.409-2.95l-.058-1.333a3.851,3.851,0,0,1,.14-1.54,2.517,2.517,0,0,1,1.622-1.42,5.6,5.6,0,0,1,2.209-.159.568.568,0,0,1,.284.077.53.53,0,0,1,.154.26,1.742,1.742,0,0,1,.087,1.391,1.442,1.442,0,0,1-.443.457c-.525.375-1.136.626-1.631,1.035a.591.591,0,0,0-.221.279.652.652,0,0,0,0,.3,4.847,4.847,0,0,0,.25.775.765.765,0,0,0,.217.327c.091.077.212.106.308.178.207.168.64.39.616.654a21.578,21.578,0,0,1-.876,2.993C800.855,624.313,799.32,621.936,799.041,621.123Z" transform="translate(-439.28 -396.8)"/><g class="a" transform="translate(365.733 213.581)"><path d="M812.086,628.2h-.106a3.237,3.237,0,0,0,1.237,0h.12a4.335,4.335,0,0,0-1.251,0Z" transform="translate(-811.98 -617.893)"/><path d="M830.828,606.83c-.679,1.526-1.68,9.788-1.858,11.43.664.173,1.1.3,1.1.3s1.04-9.721,1.8-11.444Z" transform="translate(-820.794 -606.83)"/></g><path class="h" d="M819.854,596.018a1.444,1.444,0,0,0,.621.938,8.336,8.336,0,0,1,1.1,1.116,7.91,7.91,0,0,1,1.092,2.19,26.83,26.83,0,0,1,.91,2.993c-2.406,1.116-5.14,1.064-7.7,1.8a6.146,6.146,0,0,0-2.887,1.708,3.98,3.98,0,0,0-1.064,3.133.409.409,0,0,0,.058.188.4.4,0,0,0,.337.135,2.887,2.887,0,0,0,1.766-.606,8.4,8.4,0,0,0,1.352-1.328,2.175,2.175,0,0,1,.962-.712,15.751,15.751,0,0,1,4.331-.424,54.563,54.563,0,0,0,6.453-.51.52.52,0,0,0,.578-.577c.212-2.839-.842-5.611-1.925-8.244q-.65-1.583-1.338-3.152a9.338,9.338,0,0,0-1.636-2.8,2.887,2.887,0,0,0-.962-.712,4.067,4.067,0,0,0-1.29-.241,9.141,9.141,0,0,0-2.113-.039,4.5,4.5,0,0,0-.2,1.092,9.463,9.463,0,0,0,1.165,3.691C819.536,595.835,819.743,595.844,819.854,596.018Z" transform="translate(-446.209 -384.949)"/><path class="j" d="M811.891,606.67a3.528,3.528,0,0,0-.481,1.838,2.475,2.475,0,0,0,.12.751,2.435,2.435,0,0,0,1.535,1.444" transform="translate(-445.951 -393.166)"/><path class="b" d="M808.11,572.186a2.207,2.207,0,0,0-.7.111,4.614,4.614,0,0,0-3.85-1.627c-2.3,0-4.163,1.189-4.163,2.652s1.862,2.647,4.163,2.647a5.856,5.856,0,0,0,2.5-.529,2.267,2.267,0,1,0,2.04-3.253Z" transform="translate(-439.721 -374.491)"/><path class="d" d="M808.288,578.117a2.262,2.262,0,0,1-2.041-1.285,5.857,5.857,0,0,1-2.5.53c-2.3,0-4.158-1.184-4.158-2.647a1.584,1.584,0,0,1,0-.265,1.8,1.8,0,0,0-.212.833c0,1.444,1.862,2.647,4.163,2.647a5.856,5.856,0,0,0,2.5-.529,2.267,2.267,0,0,0,4.269-.563,2.257,2.257,0,0,1-2.021,1.28Z" transform="translate(-439.71 -376.452)"/><path class="d" d="M795.562,567.993a6.425,6.425,0,0,1,7.219-3.441,6.8,6.8,0,0,1,10.356,5.226v-.568a6.8,6.8,0,0,0-10.38-5.775,6.425,6.425,0,0,0-7.219,3.441,7.835,7.835,0,0,0-2.45,5.852v.568A7.7,7.7,0,0,1,795.562,567.993Z" transform="translate(-436.446 -370.211)"/><path class="f" d="M882.569,521.768c1.256-2.324-.168-5.178-1.81-7.252s-3.633-4.23-3.59-6.877c.058-3.8,4.091-6.04,7.315-8.056a35.562,35.562,0,0,0,6.564-5.294,9.591,9.591,0,0,0,2.021-2.7,11.091,11.091,0,0,0,.606-4.812q-.212-8.133-.8-16.247" transform="translate(-480.064 -322.542)"/><path class="c" d="M909.755,463.843a5.915,5.915,0,0,0-2.955-4.851l-1.328,2.623.039-3.176a5.813,5.813,0,0,0-1.949-.236,5.924,5.924,0,1,0,6.194,5.64Z" transform="translate(-490.826 -316.144)"/><path class="c" d="M888.5,543.954a5.924,5.924,0,1,1,.284-4.774l-3.7,3.013,4.071-.963A5.893,5.893,0,0,1,888.5,543.954Z" transform="translate(-480.139 -356.153)"/><path class="c" d="M887.8,516.587a5.924,5.924,0,0,1-1.882-11.622l-.029,2.44,1.343-2.652h0a5.926,5.926,0,1,1,.553,11.839Z" transform="translate(-482.357 -340.293)"/><path class="c" d="M917.659,496.706a5.924,5.924,0,1,1,2.623-11.068l-1.049,2.887,2.156-2.069a5.89,5.89,0,0,1,1.925,4.091,5.716,5.716,0,0,1-.149,1.631A5.924,5.924,0,0,1,917.659,496.706Z" transform="translate(-497.839 -329.979)"/><path class="d" d="M908.954,468.92c-1.367.154-2.7.577-4.071.664a4.414,4.414,0,0,1-3.749-1.314,18.365,18.365,0,0,1-1.092-1.925,4.259,4.259,0,0,0-1.492-1.405,5.924,5.924,0,1,0,11.068,3.932C909.4,468.881,909.176,468.9,908.954,468.92Z" transform="translate(-490.819 -319.642)"/><path class="d" d="M917.685,500.361a5.929,5.929,0,0,1-5.635-8.451,4.384,4.384,0,0,1,1.194,1.189,18.973,18.973,0,0,0,1.174,1.959,4.82,4.82,0,0,0,3.927,1.376c1.429-.067,2.81-.481,4.235-.6.2,0,.4-.034.6-.039a5.924,5.924,0,0,1-5.491,4.567Z" transform="translate(-497.866 -333.633)"/><path class="d" d="M887.8,520.349a5.919,5.919,0,0,1-5.684-8.35,4.884,4.884,0,0,1,1.251,1.2c.481.65.746,1.4,1.285,2a5.484,5.484,0,0,0,4.2,1.473c1.516-.034,2.887-.395,4.331-.505a5.924,5.924,0,0,1-5.38,4.182Z" transform="translate(-482.357 -344.055)"/><path class="d" d="M888.541,548.072a5.929,5.929,0,0,1-10.8-4.812,5.8,5.8,0,0,1,1.3,1.16c.568.688.938,1.444,1.588,2.108a7.441,7.441,0,0,0,4.909,1.723,25.962,25.962,0,0,0,3.008-.178Z" transform="translate(-480.175 -360.272)"/><path class="f" d="M1041.569,673.768c1.256-2.324-.168-5.178-1.81-7.252s-3.633-4.23-3.59-6.877c.058-3.8,4.09-6.04,7.315-8.056a35.567,35.567,0,0,0,6.564-5.294,9.592,9.592,0,0,0,2.021-2.7,11.092,11.092,0,0,0,.606-4.812q-.207-8.133-.8-16.247" transform="translate(-562.547 -401.394)"/><path class="c" d="M1068.781,615.844a5.913,5.913,0,0,0-2.955-4.851l-1.328,2.623.039-3.176a5.811,5.811,0,0,0-1.925-.236,5.924,5.924,0,1,0,6.194,5.64Z" transform="translate(-573.334 -394.996)"/><path class="c" d="M1047.5,695.954a5.924,5.924,0,1,1,.284-4.774l-3.7,3.013,4.071-.962A5.887,5.887,0,0,1,1047.5,695.954Z" transform="translate(-562.621 -435.004)"/><path class="c" d="M1046.8,668.587a5.924,5.924,0,0,1-1.882-11.622l-.029,2.44,1.343-2.652h0a5.926,5.926,0,1,1,.553,11.839Z" transform="translate(-564.839 -419.144)"/><path class="c" d="M1076.659,648.706a5.924,5.924,0,1,1,2.623-11.069l-1.049,2.887,2.156-2.069a5.89,5.89,0,0,1,1.925,4.091,5.717,5.717,0,0,1-.149,1.631A5.924,5.924,0,0,1,1076.659,648.706Z" transform="translate(-580.322 -408.831)"/><path class="d" d="M1067.954,620.92c-1.367.154-2.7.578-4.071.664a4.414,4.414,0,0,1-3.749-1.314,18.377,18.377,0,0,1-1.092-1.925,4.259,4.259,0,0,0-1.492-1.405,5.924,5.924,0,1,0,11.068,3.932C1068.4,620.881,1068.176,620.9,1067.954,620.92Z" transform="translate(-573.302 -398.494)"/><path class="d" d="M1076.685,652.361a5.929,5.929,0,0,1-5.635-8.451,4.384,4.384,0,0,1,1.193,1.189,19.014,19.014,0,0,0,1.174,1.959,4.82,4.82,0,0,0,3.927,1.376c1.429-.067,2.81-.481,4.235-.6.2,0,.4-.034.6-.039A5.924,5.924,0,0,1,1076.685,652.361Z" transform="translate(-580.348 -412.485)"/><path class="d" d="M1046.8,672.349a5.919,5.919,0,0,1-5.683-8.349,4.89,4.89,0,0,1,1.251,1.2c.481.65.746,1.4,1.285,2a5.484,5.484,0,0,0,4.2,1.473c1.516-.034,2.887-.395,4.331-.505A5.924,5.924,0,0,1,1046.8,672.349Z" transform="translate(-564.84 -422.907)"/><path class="d" d="M1047.541,700.072a5.929,5.929,0,0,1-10.8-4.812,5.81,5.81,0,0,1,1.3,1.16c.568.688.962,1.444,1.588,2.108a7.44,7.44,0,0,0,4.909,1.723,25.961,25.961,0,0,0,3.008-.178Z" transform="translate(-562.658 -439.123)"/><path class="k" d="M460.447,573.343a4.721,4.721,0,0,0-1.882-3.811,260.821,260.821,0,0,0-8.306-9.543h0a4.692,4.692,0,0,0-.683-.159h-.813a5.419,5.419,0,0,0-5.236,4.63c-1.689-.39-3.234.115-3.518,1.184a1.444,1.444,0,0,0,.048.857,3.725,3.725,0,0,0,2.483,2.012l.164.048.245.063H443a4.255,4.255,0,0,0-.4,1.824,4.206,4.206,0,0,0,2.267,3.754l-.111.067a1.5,1.5,0,0,0-.366.51,7.635,7.635,0,0,0-.707,1.7c-.12.51-.14,1.039-.289,1.545-.279.929-.991,1.713-1.073,2.681-.038.433.034.962-.274,1.242a1.5,1.5,0,0,1-.245.173,1.986,1.986,0,0,0-.534.563,1.869,1.869,0,0,1-.375.539c-.279.207-.736.188-.871.51s.217.7.135,1.054-.38.419-.6.616a2.142,2.142,0,0,0-.515.963,3.157,3.157,0,0,1-2.6-.664,4.856,4.856,0,0,1,.27.962,4.218,4.218,0,0,0-1.4-.7,4.421,4.421,0,0,1-1.492-1.107l.8-.111-3.527-5.385-1.044-.217.934,1.8a.573.573,0,0,0-.318.38,1.631,1.631,0,0,0-.034.611,10.941,10.941,0,0,0,.241,1.444l.27,1.261c.024.115.053.236.087.351a3.317,3.317,0,0,0-1.044.115,9.1,9.1,0,0,0-2.17-.515,1.2,1.2,0,0,0-.481,0,1.246,1.246,0,0,0-.457.37,14.8,14.8,0,0,0-1.612,2.271,79.29,79.29,0,0,1-6.8,9.168c-1.636.664-3.287,1.295-4.938,1.925l-3.552,1.357a5.384,5.384,0,0,1-2.2.481c-.337,0-.756-.072-.962.217a2.028,2.028,0,0,0-.217.481l-.366.038h0a4.206,4.206,0,0,0-.852-1.569.539.539,0,0,0-.4.308c-.087.159-.14.332-.241.481-.188.279-.52.414-.756.65s-.385.6-.645.842a2.55,2.55,0,0,1-1.208.481,7.62,7.62,0,0,0-1.891.717,3.045,3.045,0,0,1-.7.322,2.622,2.622,0,0,1-.823.029l-1.877-.139a1.477,1.477,0,0,0-.505.024.962.962,0,0,0-.6.962,1.515,1.515,0,0,0,.6,1.035,3.823,3.823,0,0,0,1.068.553,31.358,31.358,0,0,0,5,1.482v.38a8.542,8.542,0,0,0,3.85.914.6.6,0,0,0,.289-.053.635.635,0,0,0,.241-.375,15.484,15.484,0,0,0,.751-3.686h0a1.922,1.922,0,0,0,.679-.173c.645-.178,1.29.265,1.959.337a5.351,5.351,0,0,0,2.363-.683l.337-.111a3.7,3.7,0,0,1-.78.746c-.322.231-.683.4-1,.645a6.851,6.851,0,0,1-.847.654,5.307,5.307,0,0,1-.65.25,4.282,4.282,0,0,0-.929.481,1.881,1.881,0,0,0-.63.616.924.924,0,0,0-.053.866.915.915,0,0,0,.621.433,2.552,2.552,0,0,0,.765,0c1.02-.077,2.036-.168,3.051-.26a8.155,8.155,0,0,0,1.275-.183c.221-.053.443-.125.664-.188a5.928,5.928,0,0,1,1.16-.173.963.963,0,0,1,.337.034c.236.077.4.318.645.366a.963.963,0,0,0,.481-.062,10.733,10.733,0,0,1,2.257-.241.932.932,0,0,0,.876-.39c.154-.308-.125-.8-.25-1.213a3.711,3.711,0,0,1-.106-.8,5,5,0,0,0-.558-1.9,4.948,4.948,0,0,1-.419-.866,21.881,21.881,0,0,0,4.153-2.108,7.426,7.426,0,0,1,2.368-1.14,6.44,6.44,0,0,1,2.974.346,67.684,67.684,0,0,1,6.819,2.377c1.064.438,2.122.9,3.22,1.232a5.02,5.02,0,0,0,1.145,1.112,5.3,5.3,0,0,0,2.478.679,32.476,32.476,0,0,0,3.489.13,5.885,5.885,0,0,0,2.6-.481,2.668,2.668,0,0,0,.544-.361,2.156,2.156,0,0,0,1.713-.63,4.153,4.153,0,0,0,1.3-2.06c.284-1.1.067-2.406.741-3.282.178-.241.414-.433.592-.674a1.9,1.9,0,0,0,.308-1.112.226.226,0,0,1,.029-.043,4.077,4.077,0,0,0,.289-1.107,6.328,6.328,0,0,1,.313-.876,27.042,27.042,0,0,0,.9-2.594,15.153,15.153,0,0,0,.414-1.781c.072-.481.115-.963.154-1.444a8.965,8.965,0,0,1,.438-2.228,18.134,18.134,0,0,0,1.011-5.332v-.106a3.576,3.576,0,0,0,3.167-3.638,3.8,3.8,0,0,0-.332-1.554A4.812,4.812,0,0,0,460.447,573.343Zm-17.219,20.92c.053.188.115.371.178.553-.284-.274-.558-.558-.842-.837.111.039.226.072.332.116a1.787,1.787,0,0,1,.318.168Zm-1.362-.924c-1.665-1.444-3.59-2.565-5.294-3.965.929.457,1.833.991,2.729,1.5q1.593.91,3.229,1.747a2.641,2.641,0,0,1-.679.717Zm.707-3.638.082-.082v.573l-.448-.154a3.966,3.966,0,0,0,.351-.337Zm-14.644,3.9a13.784,13.784,0,0,0,1.771-2.526,17.008,17.008,0,0,0,2.642,2.95C430.875,593.834,429.4,593.676,427.93,593.6Z" transform="translate(-230.414 -368.867)"/><path class="l" d="M415.35,438.25l1.049.212,3.576,5.289-1.574.212Z" transform="translate(-215.467 -227.533)"/><path class="m" d="M414.49,645.4a20.582,20.582,0,0,0,1.049,2.729,25.968,25.968,0,0,0,3.489-1,11,11,0,0,0-.727-.962,3.59,3.59,0,0,0-.987-.756,2.715,2.715,0,0,0-1.2,0C415.578,645.4,415.034,645.413,414.49,645.4Z" transform="translate(-240.045 -413.232)"/><path class="l" d="M407.629,645.179a2.175,2.175,0,0,1-1.193-1.357,4.37,4.37,0,0,0-.91-1.622.52.52,0,0,0-.4.3c-.087.154-.14.327-.236.481-.193.274-.529.409-.77.64s-.385.592-.645.828a2.559,2.559,0,0,1-1.217.481,7.891,7.891,0,0,0-1.925.707,3.323,3.323,0,0,1-.707.318,2.8,2.8,0,0,1-.828,0l-1.9-.135a1.48,1.48,0,0,0-.481,0,.919.919,0,0,0-.6.962,1.444,1.444,0,0,0,.6,1.02,3.991,3.991,0,0,0,1.078.549,31.723,31.723,0,0,0,5.082,1.444v.375a8.8,8.8,0,0,0,3.874.9.654.654,0,0,0,.289-.048.635.635,0,0,0,.241-.375,15.012,15.012,0,0,0,.794-4.119,3.282,3.282,0,0,0-.082-1.064c-.106-.342.25-.2-.077-.332" transform="translate(-230.354 -411.598)"/><path class="l" d="M455.7,631.923c-5.621.337-11.174-1.309-16.8-1.482a8.208,8.208,0,0,0-2.089.13,10.526,10.526,0,0,0-2.069.8c-3.017,1.405-6.141,2.57-9.259,3.73l-3.585,1.333a5.428,5.428,0,0,1-2.219.481c-.342,0-.76-.072-.962.212a3.51,3.51,0,0,0,.077,3.1c.125.313.337.654.674.688a1.959,1.959,0,0,0,.683-.173c.65-.173,1.3.265,1.973.337a5.544,5.544,0,0,0,2.382-.674,20.674,20.674,0,0,1,4.081-.693,18.284,18.284,0,0,0,6.391-2.652,7.459,7.459,0,0,1,2.382-1.126,6.593,6.593,0,0,1,3,.342,68.8,68.8,0,0,1,6.877,2.339,32.047,32.047,0,0,0,3.59,1.314,12.993,12.993,0,0,0,8.051-.481c.9-.356,1.877-.962,1.925-1.954.034-.553-.4-1.039-.683-1.516-.183-.3-.371-.606-.568-.9C458.579,633.689,457.4,631.822,455.7,631.923Z" transform="translate(-242.059 -405.488)"/><path class="d" d="M455.7,631.923c-5.621.337-11.174-1.309-16.8-1.482a8.208,8.208,0,0,0-2.089.13,10.526,10.526,0,0,0-2.069.8c-3.017,1.405-6.141,2.57-9.259,3.73l-3.585,1.333a5.428,5.428,0,0,1-2.219.481c-.342,0-.76-.072-.962.212a3.51,3.51,0,0,0,.077,3.1c.125.313.337.654.674.688a1.959,1.959,0,0,0,.683-.173c.65-.173,1.3.265,1.973.337a5.544,5.544,0,0,0,2.382-.674,20.674,20.674,0,0,1,4.081-.693,18.284,18.284,0,0,0,6.391-2.652,7.459,7.459,0,0,1,2.382-1.126,6.593,6.593,0,0,1,3,.342,68.8,68.8,0,0,1,6.877,2.339,32.047,32.047,0,0,0,3.59,1.314,12.993,12.993,0,0,0,8.051-.481c.9-.356,1.877-.962,1.925-1.954.034-.553-.4-1.039-.683-1.516-.183-.3-.371-.606-.568-.9C458.579,633.689,457.4,631.822,455.7,631.923Z" transform="translate(-242.059 -405.488)"/><path class="m" d="M436.92,643.477q1.319.448,2.661.828c.481-.823,1.444-1.4,1.651-2.339a.222.222,0,0,0,0-.125.231.231,0,0,0-.1-.091,5.042,5.042,0,0,0-2.089-.611c-.577-.034-.842.568-1.1.991C437.839,642.318,437.156,643.569,436.92,643.477Z" transform="translate(-251.681 -411.046)"/><path class="l" d="M430.11,643.341a1.925,1.925,0,0,1-1.295-.852c-.12-.216-.255-.51-.505-.481s-.332.289-.385.515a14.437,14.437,0,0,1-.727,2.5,4.687,4.687,0,0,1-1.554,2.045c-.327.226-.688.395-1.011.635a6.939,6.939,0,0,1-.852.645,5.072,5.072,0,0,1-.654.241,4.533,4.533,0,0,0-.934.481,1.853,1.853,0,0,0-.64.611.881.881,0,0,0-.048.852.91.91,0,0,0,.621.423,2.616,2.616,0,0,0,.775,0c1.025-.072,2.05-.164,3.075-.255a8.9,8.9,0,0,0,1.285-.178l.669-.183a5.322,5.322,0,0,1,1.169-.173.91.91,0,0,1,.342.034c.236.077.4.313.65.361a1.088,1.088,0,0,0,.481-.063,10.623,10.623,0,0,1,2.276-.236.961.961,0,0,0,.885-.385c.193-.375-.125-.794-.255-1.2a3.846,3.846,0,0,1-.106-.784,4.784,4.784,0,0,0-.563-1.867c-.26-.481-.616-1.011-.433-1.521a1.444,1.444,0,0,0,.173-.525C432.478,643.153,430.582,643.447,430.11,643.341Z" transform="translate(-243.639 -411.497)"/><path class="m" d="M473.315,609.472a4.389,4.389,0,0,1-2.243-2.223c-.091-.212-.168-.438-.26-.65a4.938,4.938,0,0,0-1.338-1.862.659.659,0,0,0-.481-.207.524.524,0,0,0-.361.39,1.487,1.487,0,0,0-.038.6,10.712,10.712,0,0,0,.241,1.405l.274,1.242a2.723,2.723,0,0,0,.168.553,1.924,1.924,0,0,0,.457.544c.25.231.505.452.76.674a2.617,2.617,0,0,0,.481.332,2.8,2.8,0,0,0,.852.25,7.248,7.248,0,0,1,3.2,1.232v-.924a1.222,1.222,0,0,0-.241-.669A4.268,4.268,0,0,0,473.315,609.472Z" transform="translate(-268.105 -392.056)"/><path class="d" d="M473.315,609.472a4.389,4.389,0,0,1-2.243-2.223c-.091-.212-.168-.438-.26-.65a4.938,4.938,0,0,0-1.338-1.862.659.659,0,0,0-.481-.207.524.524,0,0,0-.361.39,1.487,1.487,0,0,0-.038.6,10.712,10.712,0,0,0,.241,1.405l.274,1.242a2.723,2.723,0,0,0,.168.553,1.924,1.924,0,0,0,.457.544c.25.231.505.452.76.674a2.617,2.617,0,0,0,.481.332,2.8,2.8,0,0,0,.852.25,7.248,7.248,0,0,1,3.2,1.232v-.924a1.222,1.222,0,0,0-.241-.669A4.268,4.268,0,0,0,473.315,609.472Z" transform="translate(-268.105 -392.056)"/><ellipse class="l" cx="1.367" cy="1.376" rx="1.367" ry="1.376" transform="translate(215.288 205.164)"/><path class="l" d="M490.246,590.436a1.477,1.477,0,0,0-1.078.154,1.5,1.5,0,0,0-.371.505,7.338,7.338,0,0,0-.712,1.675c-.12.481-.14,1.025-.294,1.521-.279.914-1,1.689-1.078,2.642-.039.428.034.929-.279,1.218a1.775,1.775,0,0,1-.245.178,1.849,1.849,0,0,0-.539.553,1.815,1.815,0,0,1-.38.525c-.279.207-.741.188-.876.481s.217.693.135,1.039-.385.414-.6.606a2.1,2.1,0,0,0-.52.962,3.21,3.21,0,0,1-2.618-.65,8.335,8.335,0,0,1,.409,2.993,1.222,1.222,0,0,1-.241.924,16.671,16.671,0,0,1,3.21.558,2.215,2.215,0,0,0,1.4,0,2.34,2.34,0,0,0,.645-.51,4.111,4.111,0,0,0,1.323-2.041,11.979,11.979,0,0,0,.024-1.381,7.787,7.787,0,0,1,.351-1.68,19.985,19.985,0,0,0,.611-3.455c.063-.722.688-1.3,1.015-1.925a9.425,9.425,0,0,0,1.295-3.85C490.853,591.038,490.7,590.484,490.246,590.436Z" transform="translate(-274.439 -384.723)"/><path class="d" d="M490.246,590.436a1.477,1.477,0,0,0-1.078.154,1.5,1.5,0,0,0-.371.505,7.338,7.338,0,0,0-.712,1.675c-.12.481-.14,1.025-.294,1.521-.279.914-1,1.689-1.078,2.642-.039.428.034.929-.279,1.218a1.775,1.775,0,0,1-.245.178,1.849,1.849,0,0,0-.539.553,1.815,1.815,0,0,1-.38.525c-.279.207-.741.188-.876.481s.217.693.135,1.039-.385.414-.6.606a2.1,2.1,0,0,0-.52.962,3.21,3.21,0,0,1-2.618-.65,8.335,8.335,0,0,1,.409,2.993,1.222,1.222,0,0,1-.241.924,16.671,16.671,0,0,1,3.21.558,2.215,2.215,0,0,0,1.4,0,2.34,2.34,0,0,0,.645-.51,4.111,4.111,0,0,0,1.323-2.041,11.979,11.979,0,0,0,.024-1.381,7.787,7.787,0,0,1,.351-1.68,19.985,19.985,0,0,0,.611-3.455c.063-.722.688-1.3,1.015-1.925a9.425,9.425,0,0,0,1.295-3.85C490.853,591.038,490.7,590.484,490.246,590.436Z" transform="translate(-274.439 -384.723)"/><path class="l" d="M467.524,623.52a12.687,12.687,0,0,1-2.974-2.483c-1.8-1.7-4.014-2.887-5.914-4.49a41.657,41.657,0,0,0-3.768-3.167,9.417,9.417,0,0,0-4.038-1.41,1.073,1.073,0,0,0-.481,0,1.107,1.107,0,0,0-.457.361,14.547,14.547,0,0,0-1.631,2.238c-2.406,4.091-5.828,7.527-8.662,11.328a.722.722,0,0,0-.14.27.669.669,0,0,0,.106.419l.577,1.126c.322.635.842,1.372,1.535,1.246a1.679,1.679,0,0,0,.8-.515l2.589-2.478,2.714-2.594a20.818,20.818,0,0,0,4.245-5.014c.808,1.405,2.247,2.324,3.229,3.609.375.481.683,1.025,1.02,1.545.534.828,1.145,1.607,1.752,2.406l3.114,3.97a5.957,5.957,0,0,0,1.444,1.444,5.51,5.51,0,0,0,2.5.669,33,33,0,0,0,3.518.125,6.063,6.063,0,0,0,2.623-.481,2.377,2.377,0,0,0,1.42-2.113,3.1,3.1,0,0,0-.448-1.314A10.725,10.725,0,0,0,467.524,623.52Z" transform="translate(-252.996 -395.902)"/><ellipse class="n" cx="1.054" cy="1.059" rx="1.054" ry="1.059" transform="translate(216.443 206.434)"/><path class="m" d="M501.914,588.966a2.026,2.026,0,0,1,.116,1.521,6.17,6.17,0,0,1-.679,1.4,6.666,6.666,0,0,1-.881,1.251,9.065,9.065,0,0,0,4.63-1.328,6.723,6.723,0,0,0,2.921-2.546,1.347,1.347,0,0,1-1.078-.2,3.85,3.85,0,0,1-.823-.765l-.813-.914a3.661,3.661,0,0,1-.481-.659,1.819,1.819,0,0,1-.217-1.064,6.2,6.2,0,0,1-1.078.9c-.582.38-1.222.654-1.809,1.03-.2.135-.664.346-.544.616S501.75,588.677,501.914,588.966Z" transform="translate(-284.648 -382.267)"/><path class="d" d="M501.914,588.966a2.026,2.026,0,0,1,.116,1.521,6.17,6.17,0,0,1-.679,1.4,6.666,6.666,0,0,1-.881,1.251,9.065,9.065,0,0,0,4.63-1.328,6.723,6.723,0,0,0,2.921-2.546,1.347,1.347,0,0,1-1.078-.2,3.85,3.85,0,0,1-.823-.765l-.813-.914a3.661,3.661,0,0,1-.481-.659,1.819,1.819,0,0,1-.217-1.064,6.2,6.2,0,0,1-1.078.9c-.582.38-1.222.654-1.809,1.03-.2.135-.664.346-.544.616S501.75,588.677,501.914,588.966Z" transform="translate(-284.648 -382.267)"/><path class="n" d="M496.605,592.676a1.372,1.372,0,0,0,0,1.588c.048.058.221.419.294.423a.264.264,0,0,0,.183-.1,12.074,12.074,0,0,0,1.03-1.227,2.291,2.291,0,0,1,1.309-.857,2.831,2.831,0,0,1,1.8.563,1.713,1.713,0,0,1,.621.481,1.68,1.68,0,0,1,.2.688,33.148,33.148,0,0,1,.183,4.375,17.239,17.239,0,0,1-.207,3.152c-.106.534-.26,1.059-.332,1.6a10.224,10.224,0,0,0-.067,1.444v2.012a5.3,5.3,0,0,0,.077,1.1c.1.438.3.847.443,1.275a8.339,8.339,0,0,1,.294,1.506l.274,2.079a2.628,2.628,0,0,1-.245,1.925c-.178.236-.414.428-.6.664-.679.886-.481,2.151-.746,3.234a4.033,4.033,0,0,1-1.319,2.021,2.18,2.18,0,0,1-1.737.621,2.38,2.38,0,0,1-1.583-1.872,7.484,7.484,0,0,0-.813-2.44,6.473,6.473,0,0,0-1.607-1.343,2.777,2.777,0,0,1-1.256-1.631c-.053-.3,0-.616-.053-.924a2.18,2.18,0,0,0-1.343-1.766c-.433-.168-.963-.231-1.213-.626a2.921,2.921,0,0,0,1.266-1.7,8.722,8.722,0,0,0,.308-2.146l.144-2.406a8.038,8.038,0,0,1,.573-3.123c.212-.433.481-.842.7-1.271a13.779,13.779,0,0,0,.746-1.862c.346-.991.693-1.983,1-2.984a5.619,5.619,0,0,1,.549-1.391C495.744,593.316,496.119,592.772,496.605,592.676Z" transform="translate(-279.32 -385.818)"/><path class="l" d="M492.286,607.914h.64l.135-.962a2.006,2.006,0,0,1,.135-.563,3.364,3.364,0,0,1,.371-.539,7.035,7.035,0,0,0,.736-3.152,16.039,16.039,0,0,1,1.405-4.119l1.242-2.767a3.823,3.823,0,0,0,.27-.707,4.244,4.244,0,0,0,.077-.818c0-.428.135-1.987.149-2.406,0-.159-.351-.072-.424-.212-.154-.308-.366.525-.659.707a1.617,1.617,0,0,0-.573.837c-.27.693-.433,1.444-.683,2.132a4.355,4.355,0,0,1-1.16,1.886c-.255.221-.549.4-.789.64a4.319,4.319,0,0,0-.871,3.056C492.267,601.59,492.142,607.914,492.286,607.914Z" transform="translate(-280.367 -385.348)"/><path class="l" d="M505.207,590.4a2.185,2.185,0,0,0-1.141,1.564,7.912,7.912,0,0,1-.578,1.925c-.78,1.357-2.767,1.752-3.321,3.219a5.919,5.919,0,0,0-.221,1.516c-.1,1.054-.443,2.069-.549,3.118a13.892,13.892,0,0,0,.058,2.449l.7,8.287a11.069,11.069,0,0,1-.207,3.648,3.513,3.513,0,0,0,2.089-.346c.65-.3,1.246-.707,1.877-1.054a19.341,19.341,0,0,0,3.219-1.81,1.967,1.967,0,0,0,.433-.481,4.162,4.162,0,0,0,.289-1.088,5.872,5.872,0,0,1,.313-.857,25.238,25.238,0,0,0,.9-2.56,14.7,14.7,0,0,0,.414-1.752c.077-.481.12-.962.159-1.444a8.47,8.47,0,0,1,.443-2.19,17.639,17.639,0,0,0,1.015-5.255,2.746,2.746,0,0,0-.053-.77,4.121,4.121,0,0,0-.424-.881c-.289-.544-.481-1.141-.732-1.694a8.331,8.331,0,0,0-2.844-2.988A2.166,2.166,0,0,0,505.207,590.4Z" transform="translate(-284.077 -384.692)"/><path class="m" d="M473.168,615.558a5.02,5.02,0,0,1-1.323-1.006c-.173-.2-.318-.428-.481-.63a3.278,3.278,0,0,0-1.665-.962,8.136,8.136,0,0,0-1.925-.188,3.491,3.491,0,0,0-1.285.154,1.309,1.309,0,0,0-.852.914,1.516,1.516,0,0,0,.65,1.347,3.06,3.06,0,0,0,1.294.626,10.33,10.33,0,0,0,1.169.14c2.3.241,4.355,1.492,6.372,2.632q2.656,1.511,5.419,2.81a11.258,11.258,0,0,0,.091-1.66c0-.414-.034-1.049-.424-1.294a8.5,8.5,0,0,0-1.723-.515,27.113,27.113,0,0,1-3.47-1.405A17.268,17.268,0,0,1,473.168,615.558Z" transform="translate(-266.576 -396.327)"/><ellipse class="m" cx="4.1" cy="4.124" rx="4.1" ry="4.124" transform="translate(212.554 197.979)"/><path class="l" d="M503.032,599.617a6.575,6.575,0,0,0-.794,1.487c-.481,1.04-1.3,1.925-1.7,3.027s-.4,2.517-1.227,3.417a1.2,1.2,0,0,0-.361.52,2.484,2.484,0,0,1-.038.375c-.12.327-.655.342-.756.678-.029.1,0,.2-.048.3-.082.217-.371.25-.558.38-.4.27-.318.9-.6,1.285a1.083,1.083,0,0,1-1.025.361,3.611,3.611,0,0,1-1.064-.4,1.026,1.026,0,0,0-.385-.12.794.794,0,0,0-.443.154,2.729,2.729,0,0,0-1.107,2.334,7.623,7.623,0,0,0,.635,2.613,1.048,1.048,0,0,0,.207.39.919.919,0,0,0,1.02.077,4.811,4.811,0,0,1,1-.448c.635-.115,1.256.322,1.9.284a2.643,2.643,0,0,0,1.28-.563,7.076,7.076,0,0,0,1.723-1.444c.279-.371.481-.789.731-1.184a15.182,15.182,0,0,1,1.035-1.381l2.368-2.887a6.65,6.65,0,0,0,.635-.876,6.176,6.176,0,0,0,.481-1.323,10.139,10.139,0,0,0,.481-2.353,9.045,9.045,0,0,0-.173-1.973,6.974,6.974,0,0,0-.481-1.882C505.251,599.376,504,598.49,503.032,599.617Z" transform="translate(-280.733 -389.236)"/><path class="o" d="M508.8,574.576a4.62,4.62,0,0,0-1.9-3.754,5.491,5.491,0,0,0-4.663-5.347,5.327,5.327,0,0,0-10.5.284c-1.7-.385-3.263.115-3.547,1.165s.919,2.406,2.714,2.887a5.055,5.055,0,0,0,1.742.173,5.332,5.332,0,0,0,3.667,2.286,5.472,5.472,0,0,0,4,4.129,4.6,4.6,0,0,0,1.237,1.708v.4a3.47,3.47,0,1,0,6.939,0,3.705,3.705,0,0,0-.332-1.535A4.639,4.639,0,0,0,508.8,574.576Z" transform="translate(-278.259 -369.576)"/><path class="d" d="M489.345,567.143c.284-1.049,1.843-1.55,3.547-1.165a5.419,5.419,0,0,1,5.294-4.562h.351a5.217,5.217,0,0,0-1.511-.226,5.419,5.419,0,0,0-5.294,4.562c-1.7-.385-3.263.115-3.547,1.165s.919,2.406,2.714,2.887a5.294,5.294,0,0,0,1.03.178C490.211,569.467,489.061,568.216,489.345,567.143Z" transform="translate(-278.254 -369.573)"/><path class="d" d="M507.658,588.377a3.62,3.62,0,0,1,0-.395,4.494,4.494,0,0,1-1.237-1.708,5.457,5.457,0,0,1-4-4.134,5.318,5.318,0,0,1-3.672-2.281,4.621,4.621,0,0,1-1.025-.029,5.347,5.347,0,0,0,3.537,2.1,5.471,5.471,0,0,0,4,4.129,4.6,4.6,0,0,0,1.237,1.708v.4a3.532,3.532,0,0,0,3.451,3.59A3.59,3.59,0,0,1,507.658,588.377Z" transform="translate(-283.222 -379.243)"/><ellipse class="m" cx="0.63" cy="0.842" rx="0.63" ry="0.842" transform="translate(217.015 202.657) rotate(-37.22)"/></g></svg>