<svg xmlns="http://www.w3.org/2000/svg" viewBox="0 0 36.2 36.2"><defs><style>.cls-1{fill:#00c1c0;}.cls-2{fill:#fff;}.cls-3{fill:#ff3968;}.cls-4{fill:#012950;}</style></defs><title>ico-follow us</title><g id="Layer_2" data-name="Layer 2"><g id="Layer_1-2" data-name="Layer 1"><circle class="cls-1" cx="18.1" cy="18.1" r="18.1"/><polygon class="cls-2" points="10.66 14.97 10.66 26.66 14.91 27.73 22.35 28.79 25.54 27.73 27.66 22.41 28.73 14.97 25.54 12.85 22.35 12.85 22.35 8.6 22.35 6.47 19.16 5.41 18.1 8.6 15.97 11.79 12.79 14.97 10.66 14.97"/><circle class="cls-3" cx="9.2" cy="25.11" r="1.59"/><path class="cls-4" d="M10.25,25a1,1,0,0,0-1-1,1,1,0,0,0-1,1,1,1,0,0,0,1,1,1,1,0,0,0,1-1Zm17.66-8.83a2,2,0,0,0-2-2h-5.4a6.33,6.33,0,0,1,.74-2.45A6.18,6.18,0,0,0,22,9.25,4,4,0,0,0,21.53,7a2.22,2.22,0,0,0-2-.72A2.58,2.58,0,0,0,19,7.61c-.12.61-.28,1.25-.47,1.93a3.9,3.9,0,0,1-.91,1.68c-.23.23-.62.7-1.18,1.39,0,.05-.16.2-.35.46l-.49.63c-.12.16-.3.38-.52.65a8.7,8.7,0,0,1-.62.67c-.18.18-.38.36-.59.55a2.61,2.61,0,0,1-.61.41,1.35,1.35,0,0,1-.54.14h-.49v9.81h.49a3.08,3.08,0,0,1,.48,0l.5.1c.15,0,.35.09.59.17l.53.18.55.19.44.16A16.83,16.83,0,0,0,21,27.89H22.9c2,0,2.94-.85,2.94-2.56a5.4,5.4,0,0,0-.08-.86,1.69,1.69,0,0,0,.73-.8,2.6,2.6,0,0,0,.27-1.13,2.08,2.08,0,0,0-.28-1.06,2.42,2.42,0,0,0,.81-1.82,2.77,2.77,0,0,0-.15-.85,2.07,2.07,0,0,0-.38-.73c.33,0,.6-.25.82-.72A3,3,0,0,0,27.91,16.12Zm2,0a4.42,4.42,0,0,1-.75,2.5,4.11,4.11,0,0,1,.14,1.06,4.41,4.41,0,0,1-.59,2.21,4.62,4.62,0,0,1,0,.65,4.31,4.31,0,0,1-.92,2.73,4.36,4.36,0,0,1-1.3,3.37A4.9,4.9,0,0,1,23,29.85H21a12.3,12.3,0,0,1-2.9-.34c-1-.23-2.06-.57-3.32-1a11.09,11.09,0,0,0-2.11-.61H8.29a2,2,0,0,1-2-2V16.12a2,2,0,0,1,2-2h4.2a13.59,13.59,0,0,0,2.1-2.38c.59-.76,1.14-1.42,1.64-2a2.47,2.47,0,0,0,.54-1.31c.12-.62.28-1.26.47-1.94a3.74,3.74,0,0,1,1-1.65,2,2,0,0,1,1.38-.57,5.3,5.3,0,0,1,2.32.5A3.39,3.39,0,0,1,23.45,6.4,6.36,6.36,0,0,1,24,9.25a6.78,6.78,0,0,1-.73,2.95H26a4,4,0,0,1,3.92,3.9Z"/></g></g></svg>